<?xml version="1.0" encoding="utf-8" standalone="no"?>
<!DOCTYPE svg PUBLIC "-//W3C//DTD SVG 1.1//EN"
  "http://www.w3.org/Graphics/SVG/1.1/DTD/svg11.dtd">
<!-- Created with matplotlib (https://matplotlib.org/) -->
<svg height="432pt" version="1.1" viewBox="0 0 576 432" width="576pt" xmlns="http://www.w3.org/2000/svg" xmlns:xlink="http://www.w3.org/1999/xlink">
 <defs>
  <style type="text/css">
*{stroke-linecap:butt;stroke-linejoin:round;}
  </style>
 </defs>
 <g id="figure_1">
  <g id="patch_1">
   <path d="M 0 432 
L 576 432 
L 576 0 
L 0 0 
z
" style="fill:#ffffff;"/>
  </g>
  <g id="axes_1">
   <g id="patch_2">
    <path d="M 197.1125 388.792 
L 563.52 388.792 
L 563.52 12.48 
L 197.1125 12.48 
z
" style="fill:#ffffff;"/>
   </g>
   <g id="patch_3">
    <path clip-path="url(#p7385e4a1d7)" d="M -68368.991106 29.585091 
L 223.701627 29.585091 
L 223.701627 33.915494 
L -68368.991106 33.915494 
z
" style="fill:#3274a1;"/>
   </g>
   <g id="patch_4">
    <path clip-path="url(#p7385e4a1d7)" d="M -68368.991106 51.237105 
L 546.865114 51.237105 
L 546.865114 55.567507 
L -68368.991106 55.567507 
z
" style="fill:#3274a1;"/>
   </g>
   <g id="patch_5">
    <path clip-path="url(#p7385e4a1d7)" d="M -68368.991106 72.889119 
L 535.80921 72.889119 
L 535.80921 77.219521 
L -68368.991106 77.219521 
z
" style="fill:#3274a1;"/>
   </g>
   <g id="patch_6">
    <path clip-path="url(#p7385e4a1d7)" d="M -68368.991106 94.541132 
L 503.288493 94.541132 
L 503.288493 98.871535 
L -68368.991106 98.871535 
z
" style="fill:#3274a1;"/>
   </g>
   <g id="patch_7">
    <path clip-path="url(#p7385e4a1d7)" d="M -68368.991106 116.193146 
L 536.669714 116.193146 
L 536.669714 120.523549 
L -68368.991106 120.523549 
z
" style="fill:#3274a1;"/>
   </g>
   <g id="patch_8">
    <path clip-path="url(#p7385e4a1d7)" d="M -68368.991106 137.84516 
L 508.768766 137.84516 
L 508.768766 142.175563 
L -68368.991106 142.175563 
z
" style="fill:#3274a1;"/>
   </g>
   <g id="patch_9">
    <path clip-path="url(#p7385e4a1d7)" d="M -68368.991106 159.497174 
L 535.819541 159.497174 
L 535.819541 163.827577 
L -68368.991106 163.827577 
z
" style="fill:#3274a1;"/>
   </g>
   <g id="patch_10">
    <path clip-path="url(#p7385e4a1d7)" d="M -68368.991106 181.149188 
L 497.506411 181.149188 
L 497.506411 185.47959 
L -68368.991106 185.47959 
z
" style="fill:#3274a1;"/>
   </g>
   <g id="patch_11">
    <path clip-path="url(#p7385e4a1d7)" d="M -68368.991106 202.801201 
L 439.521942 202.801201 
L 439.521942 207.131604 
L -68368.991106 207.131604 
z
" style="fill:#3274a1;"/>
   </g>
   <g id="patch_12">
    <path clip-path="url(#p7385e4a1d7)" d="M -68368.991106 224.453215 
L 540.655844 224.453215 
L 540.655844 228.783618 
L -68368.991106 228.783618 
z
" style="fill:#3274a1;"/>
   </g>
   <g id="patch_13">
    <path clip-path="url(#p7385e4a1d7)" d="M -68368.991106 246.105229 
L 515.070813 246.105229 
L 515.070813 250.435632 
L -68368.991106 250.435632 
z
" style="fill:#3274a1;"/>
   </g>
   <g id="patch_14">
    <path clip-path="url(#p7385e4a1d7)" d="M -68368.991106 267.757243 
L 521.353888 267.757243 
L 521.353888 272.087646 
L -68368.991106 272.087646 
z
" style="fill:#3274a1;"/>
   </g>
   <g id="patch_15">
    <path clip-path="url(#p7385e4a1d7)" d="M -68368.991106 289.409257 
L 516.931482 289.409257 
L 516.931482 293.739659 
L -68368.991106 293.739659 
z
" style="fill:#3274a1;"/>
   </g>
   <g id="patch_16">
    <path clip-path="url(#p7385e4a1d7)" d="M -68368.991106 311.06127 
L 527.574796 311.06127 
L 527.574796 315.391673 
L -68368.991106 315.391673 
z
" style="fill:#3274a1;"/>
   </g>
   <g id="patch_17">
    <path clip-path="url(#p7385e4a1d7)" d="M -68368.991106 332.713284 
L 526.664836 332.713284 
L 526.664836 337.043687 
L -68368.991106 337.043687 
z
" style="fill:#3274a1;"/>
   </g>
   <g id="patch_18">
    <path clip-path="url(#p7385e4a1d7)" d="M -68368.991106 354.365298 
L 537.231014 354.365298 
L 537.231014 358.695701 
L -68368.991106 358.695701 
z
" style="fill:#3274a1;"/>
   </g>
   <g id="patch_19">
    <path clip-path="url(#p7385e4a1d7)" d="M -68368.991106 33.915494 
L 223.701627 33.915494 
L 223.701627 38.245896 
L -68368.991106 38.245896 
z
" style="fill:#e1812c;"/>
   </g>
   <g id="patch_20">
    <path clip-path="url(#p7385e4a1d7)" d="M -68368.991106 55.567507 
L 546.865114 55.567507 
L 546.865114 59.89791 
L -68368.991106 59.89791 
z
" style="fill:#e1812c;"/>
   </g>
   <g id="patch_21">
    <path clip-path="url(#p7385e4a1d7)" d="M -68368.991106 77.219521 
L 535.80921 77.219521 
L 535.80921 81.549924 
L -68368.991106 81.549924 
z
" style="fill:#e1812c;"/>
   </g>
   <g id="patch_22">
    <path clip-path="url(#p7385e4a1d7)" d="M -68368.991106 98.871535 
L 503.288493 98.871535 
L 503.288493 103.201938 
L -68368.991106 103.201938 
z
" style="fill:#e1812c;"/>
   </g>
   <g id="patch_23">
    <path clip-path="url(#p7385e4a1d7)" d="M -68368.991106 120.523549 
L 536.669714 120.523549 
L 536.669714 124.853952 
L -68368.991106 124.853952 
z
" style="fill:#e1812c;"/>
   </g>
   <g id="patch_24">
    <path clip-path="url(#p7385e4a1d7)" d="M -68368.991106 142.175563 
L 508.768766 142.175563 
L 508.768766 146.505965 
L -68368.991106 146.505965 
z
" style="fill:#e1812c;"/>
   </g>
   <g id="patch_25">
    <path clip-path="url(#p7385e4a1d7)" d="M -68368.991106 163.827577 
L 384.343452 163.827577 
L 384.343452 168.157979 
L -68368.991106 168.157979 
z
" style="fill:#e1812c;"/>
   </g>
   <g id="patch_26">
    <path clip-path="url(#p7385e4a1d7)" d="M -68368.991106 185.47959 
L 440.854565 185.47959 
L 440.854565 189.809993 
L -68368.991106 189.809993 
z
" style="fill:#e1812c;"/>
   </g>
   <g id="patch_27">
    <path clip-path="url(#p7385e4a1d7)" d="M -68368.991106 207.131604 
L 439.521942 207.131604 
L 439.521942 211.462007 
L -68368.991106 211.462007 
z
" style="fill:#e1812c;"/>
   </g>
   <g id="patch_28">
    <path clip-path="url(#p7385e4a1d7)" d="M -68368.991106 228.783618 
L 486.874287 228.783618 
L 486.874287 233.114021 
L -68368.991106 233.114021 
z
" style="fill:#e1812c;"/>
   </g>
   <g id="patch_29">
    <path clip-path="url(#p7385e4a1d7)" d="M -68368.991106 250.435632 
L 458.321709 250.435632 
L 458.321709 254.766035 
L -68368.991106 254.766035 
z
" style="fill:#e1812c;"/>
   </g>
   <g id="patch_30">
    <path clip-path="url(#p7385e4a1d7)" d="M -68368.991106 272.087646 
L 446.381357 272.087646 
L 446.381357 276.418048 
L -68368.991106 276.418048 
z
" style="fill:#e1812c;"/>
   </g>
   <g id="patch_31">
    <path clip-path="url(#p7385e4a1d7)" d="M -68368.991106 293.739659 
L 445.012449 293.739659 
L 445.012449 298.070062 
L -68368.991106 298.070062 
z
" style="fill:#e1812c;"/>
   </g>
   <g id="patch_32">
    <path clip-path="url(#p7385e4a1d7)" d="M -68368.991106 315.391673 
L 466.775383 315.391673 
L 466.775383 319.722076 
L -68368.991106 319.722076 
z
" style="fill:#e1812c;"/>
   </g>
   <g id="patch_33">
    <path clip-path="url(#p7385e4a1d7)" d="M -68368.991106 337.043687 
L 461.481002 337.043687 
L 461.481002 341.37409 
L -68368.991106 341.37409 
z
" style="fill:#e1812c;"/>
   </g>
   <g id="patch_34">
    <path clip-path="url(#p7385e4a1d7)" d="M -68368.991106 358.695701 
L 456.848475 358.695701 
L 456.848475 363.026104 
L -68368.991106 363.026104 
z
" style="fill:#e1812c;"/>
   </g>
   <g id="patch_35">
    <path clip-path="url(#p7385e4a1d7)" d="M -68368.991106 38.245896 
L 213.767386 38.245896 
L 213.767386 42.576299 
L -68368.991106 42.576299 
z
" style="fill:#3a923a;"/>
   </g>
   <g id="patch_36">
    <path clip-path="url(#p7385e4a1d7)" d="M -68368.991106 59.89791 
L 546.457025 59.89791 
L 546.457025 64.228313 
L -68368.991106 64.228313 
z
" style="fill:#3a923a;"/>
   </g>
   <g id="patch_37">
    <path clip-path="url(#p7385e4a1d7)" d="M -68368.991106 81.549924 
L 535.583554 81.549924 
L 535.583554 85.880327 
L -68368.991106 85.880327 
z
" style="fill:#3a923a;"/>
   </g>
   <g id="patch_38">
    <path clip-path="url(#p7385e4a1d7)" d="M -68368.991106 103.201938 
L 502.63921 103.201938 
L 502.63921 107.532341 
L -68368.991106 107.532341 
z
" style="fill:#3a923a;"/>
   </g>
   <g id="patch_39">
    <path clip-path="url(#p7385e4a1d7)" d="M -68368.991106 124.853952 
L 535.742104 124.853952 
L 535.742104 129.184354 
L -68368.991106 129.184354 
z
" style="fill:#3a923a;"/>
   </g>
   <g id="patch_40">
    <path clip-path="url(#p7385e4a1d7)" d="M -68368.991106 146.505965 
L 505.990079 146.505965 
L 505.990079 150.836368 
L -68368.991106 150.836368 
z
" style="fill:#3a923a;"/>
   </g>
   <g id="patch_41">
    <path clip-path="url(#p7385e4a1d7)" d="M -68368.991106 168.157979 
L 534.904394 168.157979 
L 534.904394 172.488382 
L -68368.991106 172.488382 
z
" style="fill:#3a923a;"/>
   </g>
   <g id="patch_42">
    <path clip-path="url(#p7385e4a1d7)" d="M -68368.991106 189.809993 
L 486.387505 189.809993 
L 486.387505 194.140396 
L -68368.991106 194.140396 
z
" style="fill:#3a923a;"/>
   </g>
   <g id="patch_43">
    <path clip-path="url(#p7385e4a1d7)" d="M -68368.991106 211.462007 
L 432.449683 211.462007 
L 432.449683 215.79241 
L -68368.991106 215.79241 
z
" style="fill:#3a923a;"/>
   </g>
   <g id="patch_44">
    <path clip-path="url(#p7385e4a1d7)" d="M -68368.991106 233.114021 
L 540.840544 233.114021 
L 540.840544 237.444423 
L -68368.991106 237.444423 
z
" style="fill:#3a923a;"/>
   </g>
   <g id="patch_45">
    <path clip-path="url(#p7385e4a1d7)" d="M -68368.991106 254.766035 
L 512.938122 254.766035 
L 512.938122 259.096437 
L -68368.991106 259.096437 
z
" style="fill:#3a923a;"/>
   </g>
   <g id="patch_46">
    <path clip-path="url(#p7385e4a1d7)" d="M -68368.991106 276.418048 
L 522.047853 276.418048 
L 522.047853 280.748451 
L -68368.991106 280.748451 
z
" style="fill:#3a923a;"/>
   </g>
   <g id="patch_47">
    <path clip-path="url(#p7385e4a1d7)" d="M -68368.991106 298.070062 
L 517.029546 298.070062 
L 517.029546 302.400465 
L -68368.991106 302.400465 
z
" style="fill:#3a923a;"/>
   </g>
   <g id="patch_48">
    <path clip-path="url(#p7385e4a1d7)" d="M -68368.991106 319.722076 
L 527.115987 319.722076 
L 527.115987 324.052479 
L -68368.991106 324.052479 
z
" style="fill:#3a923a;"/>
   </g>
   <g id="patch_49">
    <path clip-path="url(#p7385e4a1d7)" d="M -68368.991106 341.37409 
L 525.763068 341.37409 
L 525.763068 345.704493 
L -68368.991106 345.704493 
z
" style="fill:#3a923a;"/>
   </g>
   <g id="patch_50">
    <path clip-path="url(#p7385e4a1d7)" d="M -68368.991106 363.026104 
L 536.951933 363.026104 
L 536.951933 367.356506 
L -68368.991106 367.356506 
z
" style="fill:#3a923a;"/>
   </g>
   <g id="patch_51">
    <path clip-path="url(#p7385e4a1d7)" d="M -68368.991106 42.576299 
L 213.767386 42.576299 
L 213.767386 46.906702 
L -68368.991106 46.906702 
z
" style="fill:#c03d3e;"/>
   </g>
   <g id="patch_52">
    <path clip-path="url(#p7385e4a1d7)" d="M -68368.991106 64.228313 
L 546.457025 64.228313 
L 546.457025 68.558716 
L -68368.991106 68.558716 
z
" style="fill:#c03d3e;"/>
   </g>
   <g id="patch_53">
    <path clip-path="url(#p7385e4a1d7)" d="M -68368.991106 85.880327 
L 535.583554 85.880327 
L 535.583554 90.21073 
L -68368.991106 90.21073 
z
" style="fill:#c03d3e;"/>
   </g>
   <g id="patch_54">
    <path clip-path="url(#p7385e4a1d7)" d="M -68368.991106 107.532341 
L 502.63921 107.532341 
L 502.63921 111.862743 
L -68368.991106 111.862743 
z
" style="fill:#c03d3e;"/>
   </g>
   <g id="patch_55">
    <path clip-path="url(#p7385e4a1d7)" d="M -68368.991106 129.184354 
L 535.742104 129.184354 
L 535.742104 133.514757 
L -68368.991106 133.514757 
z
" style="fill:#c03d3e;"/>
   </g>
   <g id="patch_56">
    <path clip-path="url(#p7385e4a1d7)" d="M -68368.991106 150.836368 
L 505.990079 150.836368 
L 505.990079 155.166771 
L -68368.991106 155.166771 
z
" style="fill:#c03d3e;"/>
   </g>
   <g id="patch_57">
    <path clip-path="url(#p7385e4a1d7)" d="M -68368.991106 172.488382 
L 374.629485 172.488382 
L 374.629485 176.818785 
L -68368.991106 176.818785 
z
" style="fill:#c03d3e;"/>
   </g>
   <g id="patch_58">
    <path clip-path="url(#p7385e4a1d7)" d="M -68368.991106 194.140396 
L 424.286991 194.140396 
L 424.286991 198.470799 
L -68368.991106 198.470799 
z
" style="fill:#c03d3e;"/>
   </g>
   <g id="patch_59">
    <path clip-path="url(#p7385e4a1d7)" d="M -68368.991106 215.79241 
L 432.449683 215.79241 
L 432.449683 220.122812 
L -68368.991106 220.122812 
z
" style="fill:#c03d3e;"/>
   </g>
   <g id="patch_60">
    <path clip-path="url(#p7385e4a1d7)" d="M -68368.991106 237.444423 
L 484.533849 237.444423 
L 484.533849 241.774826 
L -68368.991106 241.774826 
z
" style="fill:#c03d3e;"/>
   </g>
   <g id="patch_61">
    <path clip-path="url(#p7385e4a1d7)" d="M -68368.991106 259.096437 
L 450.394056 259.096437 
L 450.394056 263.42684 
L -68368.991106 263.42684 
z
" style="fill:#c03d3e;"/>
   </g>
   <g id="patch_62">
    <path clip-path="url(#p7385e4a1d7)" d="M -68368.991106 280.748451 
L 439.451591 280.748451 
L 439.451591 285.078854 
L -68368.991106 285.078854 
z
" style="fill:#c03d3e;"/>
   </g>
   <g id="patch_63">
    <path clip-path="url(#p7385e4a1d7)" d="M -68368.991106 302.400465 
L 437.494619 302.400465 
L 437.494619 306.730868 
L -68368.991106 306.730868 
z
" style="fill:#c03d3e;"/>
   </g>
   <g id="patch_64">
    <path clip-path="url(#p7385e4a1d7)" d="M -68368.991106 324.052479 
L 459.092265 324.052479 
L 459.092265 328.382881 
L -68368.991106 328.382881 
z
" style="fill:#c03d3e;"/>
   </g>
   <g id="patch_65">
    <path clip-path="url(#p7385e4a1d7)" d="M -68368.991106 345.704493 
L 453.521396 345.704493 
L 453.521396 350.034895 
L -68368.991106 350.034895 
z
" style="fill:#c03d3e;"/>
   </g>
   <g id="patch_66">
    <path clip-path="url(#p7385e4a1d7)" d="M -68368.991106 367.356506 
L 448.051248 367.356506 
L 448.051248 371.686909 
L -68368.991106 371.686909 
z
" style="fill:#c03d3e;"/>
   </g>
   <g id="matplotlib.axis_1">
    <g id="xtick_1">
     <g id="line2d_1">
      <path clip-path="url(#p7385e4a1d7)" d="M 209.420188 388.792 
L 209.420188 12.48 
" style="fill:none;stroke:#b0b0b0;stroke-linecap:square;stroke-opacity:0.5;stroke-width:0.8;"/>
     </g>
     <g id="line2d_2">
      <defs>
       <path d="M 0 0 
L 0 3.5 
" id="m1161df67c5" style="stroke:#000000;stroke-width:0.8;"/>
      </defs>
      <g>
       <use style="stroke:#000000;stroke-width:0.8;" x="209.420188" xlink:href="#m1161df67c5" y="388.792"/>
      </g>
     </g>
     <g id="text_1">
      <!-- $\mathdefault{10^{-5}}$ -->
      <defs>
       <path d="M 12.40625 8.296875 
L 28.515625 8.296875 
L 28.515625 63.921875 
L 10.984375 60.40625 
L 10.984375 69.390625 
L 28.421875 72.90625 
L 38.28125 72.90625 
L 38.28125 8.296875 
L 54.390625 8.296875 
L 54.390625 0 
L 12.40625 0 
z
" id="DejaVuSans-49"/>
       <path d="M 31.78125 66.40625 
Q 24.171875 66.40625 20.328125 58.90625 
Q 16.5 51.421875 16.5 36.375 
Q 16.5 21.390625 20.328125 13.890625 
Q 24.171875 6.390625 31.78125 6.390625 
Q 39.453125 6.390625 43.28125 13.890625 
Q 47.125 21.390625 47.125 36.375 
Q 47.125 51.421875 43.28125 58.90625 
Q 39.453125 66.40625 31.78125 66.40625 
z
M 31.78125 74.21875 
Q 44.046875 74.21875 50.515625 64.515625 
Q 56.984375 54.828125 56.984375 36.375 
Q 56.984375 17.96875 50.515625 8.265625 
Q 44.046875 -1.421875 31.78125 -1.421875 
Q 19.53125 -1.421875 13.0625 8.265625 
Q 6.59375 17.96875 6.59375 36.375 
Q 6.59375 54.828125 13.0625 64.515625 
Q 19.53125 74.21875 31.78125 74.21875 
z
" id="DejaVuSans-48"/>
       <path d="M 10.59375 35.5 
L 73.1875 35.5 
L 73.1875 27.203125 
L 10.59375 27.203125 
z
" id="DejaVuSans-8722"/>
       <path d="M 10.796875 72.90625 
L 49.515625 72.90625 
L 49.515625 64.59375 
L 19.828125 64.59375 
L 19.828125 46.734375 
Q 21.96875 47.46875 24.109375 47.828125 
Q 26.265625 48.1875 28.421875 48.1875 
Q 40.625 48.1875 47.75 41.5 
Q 54.890625 34.8125 54.890625 23.390625 
Q 54.890625 11.625 47.5625 5.09375 
Q 40.234375 -1.421875 26.90625 -1.421875 
Q 22.3125 -1.421875 17.546875 -0.640625 
Q 12.796875 0.140625 7.71875 1.703125 
L 7.71875 11.625 
Q 12.109375 9.234375 16.796875 8.0625 
Q 21.484375 6.890625 26.703125 6.890625 
Q 35.15625 6.890625 40.078125 11.328125 
Q 45.015625 15.765625 45.015625 23.390625 
Q 45.015625 31 40.078125 35.4375 
Q 35.15625 39.890625 26.703125 39.890625 
Q 22.75 39.890625 18.8125 39.015625 
Q 14.890625 38.140625 10.796875 36.28125 
z
" id="DejaVuSans-53"/>
      </defs>
      <g transform="translate(197.670188 403.390438)scale(0.1 -0.1)">
       <use transform="translate(0 0.684375)" xlink:href="#DejaVuSans-49"/>
       <use transform="translate(63.623047 0.684375)" xlink:href="#DejaVuSans-48"/>
       <use transform="translate(128.203125 38.965625)scale(0.7)" xlink:href="#DejaVuSans-8722"/>
       <use transform="translate(186.855469 38.965625)scale(0.7)" xlink:href="#DejaVuSans-53"/>
      </g>
     </g>
    </g>
    <g id="xtick_2">
     <g id="line2d_3">
      <path clip-path="url(#p7385e4a1d7)" d="M 278.343215 388.792 
L 278.343215 12.48 
" style="fill:none;stroke:#b0b0b0;stroke-linecap:square;stroke-opacity:0.5;stroke-width:0.8;"/>
     </g>
     <g id="line2d_4">
      <g>
       <use style="stroke:#000000;stroke-width:0.8;" x="278.343215" xlink:href="#m1161df67c5" y="388.792"/>
      </g>
     </g>
     <g id="text_2">
      <!-- $\mathdefault{10^{-4}}$ -->
      <defs>
       <path d="M 37.796875 64.3125 
L 12.890625 25.390625 
L 37.796875 25.390625 
z
M 35.203125 72.90625 
L 47.609375 72.90625 
L 47.609375 25.390625 
L 58.015625 25.390625 
L 58.015625 17.1875 
L 47.609375 17.1875 
L 47.609375 0 
L 37.796875 0 
L 37.796875 17.1875 
L 4.890625 17.1875 
L 4.890625 26.703125 
z
" id="DejaVuSans-52"/>
      </defs>
      <g transform="translate(266.593215 403.390438)scale(0.1 -0.1)">
       <use transform="translate(0 0.684375)" xlink:href="#DejaVuSans-49"/>
       <use transform="translate(63.623047 0.684375)" xlink:href="#DejaVuSans-48"/>
       <use transform="translate(128.203125 38.965625)scale(0.7)" xlink:href="#DejaVuSans-8722"/>
       <use transform="translate(186.855469 38.965625)scale(0.7)" xlink:href="#DejaVuSans-52"/>
      </g>
     </g>
    </g>
    <g id="xtick_3">
     <g id="line2d_5">
      <path clip-path="url(#p7385e4a1d7)" d="M 347.266241 388.792 
L 347.266241 12.48 
" style="fill:none;stroke:#b0b0b0;stroke-linecap:square;stroke-opacity:0.5;stroke-width:0.8;"/>
     </g>
     <g id="line2d_6">
      <g>
       <use style="stroke:#000000;stroke-width:0.8;" x="347.266241" xlink:href="#m1161df67c5" y="388.792"/>
      </g>
     </g>
     <g id="text_3">
      <!-- $\mathdefault{10^{-3}}$ -->
      <defs>
       <path d="M 40.578125 39.3125 
Q 47.65625 37.796875 51.625 33 
Q 55.609375 28.21875 55.609375 21.1875 
Q 55.609375 10.40625 48.1875 4.484375 
Q 40.765625 -1.421875 27.09375 -1.421875 
Q 22.515625 -1.421875 17.65625 -0.515625 
Q 12.796875 0.390625 7.625 2.203125 
L 7.625 11.71875 
Q 11.71875 9.328125 16.59375 8.109375 
Q 21.484375 6.890625 26.8125 6.890625 
Q 36.078125 6.890625 40.9375 10.546875 
Q 45.796875 14.203125 45.796875 21.1875 
Q 45.796875 27.640625 41.28125 31.265625 
Q 36.765625 34.90625 28.71875 34.90625 
L 20.21875 34.90625 
L 20.21875 43.015625 
L 29.109375 43.015625 
Q 36.375 43.015625 40.234375 45.921875 
Q 44.09375 48.828125 44.09375 54.296875 
Q 44.09375 59.90625 40.109375 62.90625 
Q 36.140625 65.921875 28.71875 65.921875 
Q 24.65625 65.921875 20.015625 65.03125 
Q 15.375 64.15625 9.8125 62.3125 
L 9.8125 71.09375 
Q 15.4375 72.65625 20.34375 73.4375 
Q 25.25 74.21875 29.59375 74.21875 
Q 40.828125 74.21875 47.359375 69.109375 
Q 53.90625 64.015625 53.90625 55.328125 
Q 53.90625 49.265625 50.4375 45.09375 
Q 46.96875 40.921875 40.578125 39.3125 
z
" id="DejaVuSans-51"/>
      </defs>
      <g transform="translate(335.516241 403.390438)scale(0.1 -0.1)">
       <use transform="translate(0 0.765625)" xlink:href="#DejaVuSans-49"/>
       <use transform="translate(63.623047 0.765625)" xlink:href="#DejaVuSans-48"/>
       <use transform="translate(128.203125 39.046875)scale(0.7)" xlink:href="#DejaVuSans-8722"/>
       <use transform="translate(186.855469 39.046875)scale(0.7)" xlink:href="#DejaVuSans-51"/>
      </g>
     </g>
    </g>
    <g id="xtick_4">
     <g id="line2d_7">
      <path clip-path="url(#p7385e4a1d7)" d="M 416.189268 388.792 
L 416.189268 12.48 
" style="fill:none;stroke:#b0b0b0;stroke-linecap:square;stroke-opacity:0.5;stroke-width:0.8;"/>
     </g>
     <g id="line2d_8">
      <g>
       <use style="stroke:#000000;stroke-width:0.8;" x="416.189268" xlink:href="#m1161df67c5" y="388.792"/>
      </g>
     </g>
     <g id="text_4">
      <!-- $\mathdefault{10^{-2}}$ -->
      <defs>
       <path d="M 19.1875 8.296875 
L 53.609375 8.296875 
L 53.609375 0 
L 7.328125 0 
L 7.328125 8.296875 
Q 12.9375 14.109375 22.625 23.890625 
Q 32.328125 33.6875 34.8125 36.53125 
Q 39.546875 41.84375 41.421875 45.53125 
Q 43.3125 49.21875 43.3125 52.78125 
Q 43.3125 58.59375 39.234375 62.25 
Q 35.15625 65.921875 28.609375 65.921875 
Q 23.96875 65.921875 18.8125 64.3125 
Q 13.671875 62.703125 7.8125 59.421875 
L 7.8125 69.390625 
Q 13.765625 71.78125 18.9375 73 
Q 24.125 74.21875 28.421875 74.21875 
Q 39.75 74.21875 46.484375 68.546875 
Q 53.21875 62.890625 53.21875 53.421875 
Q 53.21875 48.921875 51.53125 44.890625 
Q 49.859375 40.875 45.40625 35.40625 
Q 44.1875 33.984375 37.640625 27.21875 
Q 31.109375 20.453125 19.1875 8.296875 
z
" id="DejaVuSans-50"/>
      </defs>
      <g transform="translate(404.439268 403.390438)scale(0.1 -0.1)">
       <use transform="translate(0 0.765625)" xlink:href="#DejaVuSans-49"/>
       <use transform="translate(63.623047 0.765625)" xlink:href="#DejaVuSans-48"/>
       <use transform="translate(128.203125 39.046875)scale(0.7)" xlink:href="#DejaVuSans-8722"/>
       <use transform="translate(186.855469 39.046875)scale(0.7)" xlink:href="#DejaVuSans-50"/>
      </g>
     </g>
    </g>
    <g id="xtick_5">
     <g id="line2d_9">
      <path clip-path="url(#p7385e4a1d7)" d="M 485.112294 388.792 
L 485.112294 12.48 
" style="fill:none;stroke:#b0b0b0;stroke-linecap:square;stroke-opacity:0.5;stroke-width:0.8;"/>
     </g>
     <g id="line2d_10">
      <g>
       <use style="stroke:#000000;stroke-width:0.8;" x="485.112294" xlink:href="#m1161df67c5" y="388.792"/>
      </g>
     </g>
     <g id="text_5">
      <!-- $\mathdefault{10^{-1}}$ -->
      <g transform="translate(473.362294 403.390438)scale(0.1 -0.1)">
       <use transform="translate(0 0.684375)" xlink:href="#DejaVuSans-49"/>
       <use transform="translate(63.623047 0.684375)" xlink:href="#DejaVuSans-48"/>
       <use transform="translate(128.203125 38.965625)scale(0.7)" xlink:href="#DejaVuSans-8722"/>
       <use transform="translate(186.855469 38.965625)scale(0.7)" xlink:href="#DejaVuSans-49"/>
      </g>
     </g>
    </g>
    <g id="xtick_6">
     <g id="line2d_11">
      <path clip-path="url(#p7385e4a1d7)" d="M 554.03532 388.792 
L 554.03532 12.48 
" style="fill:none;stroke:#b0b0b0;stroke-linecap:square;stroke-opacity:0.5;stroke-width:0.8;"/>
     </g>
     <g id="line2d_12">
      <g>
       <use style="stroke:#000000;stroke-width:0.8;" x="554.03532" xlink:href="#m1161df67c5" y="388.792"/>
      </g>
     </g>
     <g id="text_6">
      <!-- $\mathdefault{10^{0}}$ -->
      <g transform="translate(545.23532 403.390438)scale(0.1 -0.1)">
       <use transform="translate(0 0.765625)" xlink:href="#DejaVuSans-49"/>
       <use transform="translate(63.623047 0.765625)" xlink:href="#DejaVuSans-48"/>
       <use transform="translate(128.203125 39.046875)scale(0.7)" xlink:href="#DejaVuSans-48"/>
      </g>
     </g>
    </g>
    <g id="xtick_7">
     <g id="line2d_13">
      <defs>
       <path d="M 0 0 
L 0 2 
" id="mc37f364ed6" style="stroke:#000000;stroke-width:0.6;"/>
      </defs>
      <g>
       <use style="stroke:#000000;stroke-width:0.6;" x="198.743876" xlink:href="#mc37f364ed6" y="388.792"/>
      </g>
     </g>
    </g>
    <g id="xtick_8">
     <g id="line2d_14">
      <g>
       <use style="stroke:#000000;stroke-width:0.6;" x="202.740857" xlink:href="#mc37f364ed6" y="388.792"/>
      </g>
     </g>
    </g>
    <g id="xtick_9">
     <g id="line2d_15">
      <g>
       <use style="stroke:#000000;stroke-width:0.6;" x="206.266444" xlink:href="#mc37f364ed6" y="388.792"/>
      </g>
     </g>
    </g>
    <g id="xtick_10">
     <g id="line2d_16">
      <g>
       <use style="stroke:#000000;stroke-width:0.6;" x="230.168087" xlink:href="#mc37f364ed6" y="388.792"/>
      </g>
     </g>
    </g>
    <g id="xtick_11">
     <g id="line2d_17">
      <g>
       <use style="stroke:#000000;stroke-width:0.6;" x="242.304829" xlink:href="#mc37f364ed6" y="388.792"/>
      </g>
     </g>
    </g>
    <g id="xtick_12">
     <g id="line2d_18">
      <g>
       <use style="stroke:#000000;stroke-width:0.6;" x="250.915985" xlink:href="#mc37f364ed6" y="388.792"/>
      </g>
     </g>
    </g>
    <g id="xtick_13">
     <g id="line2d_19">
      <g>
       <use style="stroke:#000000;stroke-width:0.6;" x="257.595316" xlink:href="#mc37f364ed6" y="388.792"/>
      </g>
     </g>
    </g>
    <g id="xtick_14">
     <g id="line2d_20">
      <g>
       <use style="stroke:#000000;stroke-width:0.6;" x="263.052728" xlink:href="#mc37f364ed6" y="388.792"/>
      </g>
     </g>
    </g>
    <g id="xtick_15">
     <g id="line2d_21">
      <g>
       <use style="stroke:#000000;stroke-width:0.6;" x="267.666903" xlink:href="#mc37f364ed6" y="388.792"/>
      </g>
     </g>
    </g>
    <g id="xtick_16">
     <g id="line2d_22">
      <g>
       <use style="stroke:#000000;stroke-width:0.6;" x="271.663883" xlink:href="#mc37f364ed6" y="388.792"/>
      </g>
     </g>
    </g>
    <g id="xtick_17">
     <g id="line2d_23">
      <g>
       <use style="stroke:#000000;stroke-width:0.6;" x="275.18947" xlink:href="#mc37f364ed6" y="388.792"/>
      </g>
     </g>
    </g>
    <g id="xtick_18">
     <g id="line2d_24">
      <g>
       <use style="stroke:#000000;stroke-width:0.6;" x="299.091113" xlink:href="#mc37f364ed6" y="388.792"/>
      </g>
     </g>
    </g>
    <g id="xtick_19">
     <g id="line2d_25">
      <g>
       <use style="stroke:#000000;stroke-width:0.6;" x="311.227856" xlink:href="#mc37f364ed6" y="388.792"/>
      </g>
     </g>
    </g>
    <g id="xtick_20">
     <g id="line2d_26">
      <g>
       <use style="stroke:#000000;stroke-width:0.6;" x="319.839011" xlink:href="#mc37f364ed6" y="388.792"/>
      </g>
     </g>
    </g>
    <g id="xtick_21">
     <g id="line2d_27">
      <g>
       <use style="stroke:#000000;stroke-width:0.6;" x="326.518343" xlink:href="#mc37f364ed6" y="388.792"/>
      </g>
     </g>
    </g>
    <g id="xtick_22">
     <g id="line2d_28">
      <g>
       <use style="stroke:#000000;stroke-width:0.6;" x="331.975754" xlink:href="#mc37f364ed6" y="388.792"/>
      </g>
     </g>
    </g>
    <g id="xtick_23">
     <g id="line2d_29">
      <g>
       <use style="stroke:#000000;stroke-width:0.6;" x="336.589929" xlink:href="#mc37f364ed6" y="388.792"/>
      </g>
     </g>
    </g>
    <g id="xtick_24">
     <g id="line2d_30">
      <g>
       <use style="stroke:#000000;stroke-width:0.6;" x="340.58691" xlink:href="#mc37f364ed6" y="388.792"/>
      </g>
     </g>
    </g>
    <g id="xtick_25">
     <g id="line2d_31">
      <g>
       <use style="stroke:#000000;stroke-width:0.6;" x="344.112496" xlink:href="#mc37f364ed6" y="388.792"/>
      </g>
     </g>
    </g>
    <g id="xtick_26">
     <g id="line2d_32">
      <g>
       <use style="stroke:#000000;stroke-width:0.6;" x="368.01414" xlink:href="#mc37f364ed6" y="388.792"/>
      </g>
     </g>
    </g>
    <g id="xtick_27">
     <g id="line2d_33">
      <g>
       <use style="stroke:#000000;stroke-width:0.6;" x="380.150882" xlink:href="#mc37f364ed6" y="388.792"/>
      </g>
     </g>
    </g>
    <g id="xtick_28">
     <g id="line2d_34">
      <g>
       <use style="stroke:#000000;stroke-width:0.6;" x="388.762038" xlink:href="#mc37f364ed6" y="388.792"/>
      </g>
     </g>
    </g>
    <g id="xtick_29">
     <g id="line2d_35">
      <g>
       <use style="stroke:#000000;stroke-width:0.6;" x="395.441369" xlink:href="#mc37f364ed6" y="388.792"/>
      </g>
     </g>
    </g>
    <g id="xtick_30">
     <g id="line2d_36">
      <g>
       <use style="stroke:#000000;stroke-width:0.6;" x="400.89878" xlink:href="#mc37f364ed6" y="388.792"/>
      </g>
     </g>
    </g>
    <g id="xtick_31">
     <g id="line2d_37">
      <g>
       <use style="stroke:#000000;stroke-width:0.6;" x="405.512956" xlink:href="#mc37f364ed6" y="388.792"/>
      </g>
     </g>
    </g>
    <g id="xtick_32">
     <g id="line2d_38">
      <g>
       <use style="stroke:#000000;stroke-width:0.6;" x="409.509936" xlink:href="#mc37f364ed6" y="388.792"/>
      </g>
     </g>
    </g>
    <g id="xtick_33">
     <g id="line2d_39">
      <g>
       <use style="stroke:#000000;stroke-width:0.6;" x="413.035523" xlink:href="#mc37f364ed6" y="388.792"/>
      </g>
     </g>
    </g>
    <g id="xtick_34">
     <g id="line2d_40">
      <g>
       <use style="stroke:#000000;stroke-width:0.6;" x="436.937166" xlink:href="#mc37f364ed6" y="388.792"/>
      </g>
     </g>
    </g>
    <g id="xtick_35">
     <g id="line2d_41">
      <g>
       <use style="stroke:#000000;stroke-width:0.6;" x="449.073908" xlink:href="#mc37f364ed6" y="388.792"/>
      </g>
     </g>
    </g>
    <g id="xtick_36">
     <g id="line2d_42">
      <g>
       <use style="stroke:#000000;stroke-width:0.6;" x="457.685064" xlink:href="#mc37f364ed6" y="388.792"/>
      </g>
     </g>
    </g>
    <g id="xtick_37">
     <g id="line2d_43">
      <g>
       <use style="stroke:#000000;stroke-width:0.6;" x="464.364396" xlink:href="#mc37f364ed6" y="388.792"/>
      </g>
     </g>
    </g>
    <g id="xtick_38">
     <g id="line2d_44">
      <g>
       <use style="stroke:#000000;stroke-width:0.6;" x="469.821807" xlink:href="#mc37f364ed6" y="388.792"/>
      </g>
     </g>
    </g>
    <g id="xtick_39">
     <g id="line2d_45">
      <g>
       <use style="stroke:#000000;stroke-width:0.6;" x="474.435982" xlink:href="#mc37f364ed6" y="388.792"/>
      </g>
     </g>
    </g>
    <g id="xtick_40">
     <g id="line2d_46">
      <g>
       <use style="stroke:#000000;stroke-width:0.6;" x="478.432963" xlink:href="#mc37f364ed6" y="388.792"/>
      </g>
     </g>
    </g>
    <g id="xtick_41">
     <g id="line2d_47">
      <g>
       <use style="stroke:#000000;stroke-width:0.6;" x="481.958549" xlink:href="#mc37f364ed6" y="388.792"/>
      </g>
     </g>
    </g>
    <g id="xtick_42">
     <g id="line2d_48">
      <g>
       <use style="stroke:#000000;stroke-width:0.6;" x="505.860192" xlink:href="#mc37f364ed6" y="388.792"/>
      </g>
     </g>
    </g>
    <g id="xtick_43">
     <g id="line2d_49">
      <g>
       <use style="stroke:#000000;stroke-width:0.6;" x="517.996935" xlink:href="#mc37f364ed6" y="388.792"/>
      </g>
     </g>
    </g>
    <g id="xtick_44">
     <g id="line2d_50">
      <g>
       <use style="stroke:#000000;stroke-width:0.6;" x="526.608091" xlink:href="#mc37f364ed6" y="388.792"/>
      </g>
     </g>
    </g>
    <g id="xtick_45">
     <g id="line2d_51">
      <g>
       <use style="stroke:#000000;stroke-width:0.6;" x="533.287422" xlink:href="#mc37f364ed6" y="388.792"/>
      </g>
     </g>
    </g>
    <g id="xtick_46">
     <g id="line2d_52">
      <g>
       <use style="stroke:#000000;stroke-width:0.6;" x="538.744833" xlink:href="#mc37f364ed6" y="388.792"/>
      </g>
     </g>
    </g>
    <g id="xtick_47">
     <g id="line2d_53">
      <g>
       <use style="stroke:#000000;stroke-width:0.6;" x="543.359009" xlink:href="#mc37f364ed6" y="388.792"/>
      </g>
     </g>
    </g>
    <g id="xtick_48">
     <g id="line2d_54">
      <g>
       <use style="stroke:#000000;stroke-width:0.6;" x="547.355989" xlink:href="#mc37f364ed6" y="388.792"/>
      </g>
     </g>
    </g>
    <g id="xtick_49">
     <g id="line2d_55">
      <g>
       <use style="stroke:#000000;stroke-width:0.6;" x="550.881576" xlink:href="#mc37f364ed6" y="388.792"/>
      </g>
     </g>
    </g>
    <g id="text_7">
     <!-- frac_rs -->
     <defs>
      <path d="M 37.109375 75.984375 
L 37.109375 68.5 
L 28.515625 68.5 
Q 23.6875 68.5 21.796875 66.546875 
Q 19.921875 64.59375 19.921875 59.515625 
L 19.921875 54.6875 
L 34.71875 54.6875 
L 34.71875 47.703125 
L 19.921875 47.703125 
L 19.921875 0 
L 10.890625 0 
L 10.890625 47.703125 
L 2.296875 47.703125 
L 2.296875 54.6875 
L 10.890625 54.6875 
L 10.890625 58.5 
Q 10.890625 67.625 15.140625 71.796875 
Q 19.390625 75.984375 28.609375 75.984375 
z
" id="DejaVuSans-102"/>
      <path d="M 41.109375 46.296875 
Q 39.59375 47.171875 37.8125 47.578125 
Q 36.03125 48 33.890625 48 
Q 26.265625 48 22.1875 43.046875 
Q 18.109375 38.09375 18.109375 28.8125 
L 18.109375 0 
L 9.078125 0 
L 9.078125 54.6875 
L 18.109375 54.6875 
L 18.109375 46.1875 
Q 20.953125 51.171875 25.484375 53.578125 
Q 30.03125 56 36.53125 56 
Q 37.453125 56 38.578125 55.875 
Q 39.703125 55.765625 41.0625 55.515625 
z
" id="DejaVuSans-114"/>
      <path d="M 34.28125 27.484375 
Q 23.390625 27.484375 19.1875 25 
Q 14.984375 22.515625 14.984375 16.5 
Q 14.984375 11.71875 18.140625 8.90625 
Q 21.296875 6.109375 26.703125 6.109375 
Q 34.1875 6.109375 38.703125 11.40625 
Q 43.21875 16.703125 43.21875 25.484375 
L 43.21875 27.484375 
z
M 52.203125 31.203125 
L 52.203125 0 
L 43.21875 0 
L 43.21875 8.296875 
Q 40.140625 3.328125 35.546875 0.953125 
Q 30.953125 -1.421875 24.3125 -1.421875 
Q 15.921875 -1.421875 10.953125 3.296875 
Q 6 8.015625 6 15.921875 
Q 6 25.140625 12.171875 29.828125 
Q 18.359375 34.515625 30.609375 34.515625 
L 43.21875 34.515625 
L 43.21875 35.40625 
Q 43.21875 41.609375 39.140625 45 
Q 35.0625 48.390625 27.6875 48.390625 
Q 23 48.390625 18.546875 47.265625 
Q 14.109375 46.140625 10.015625 43.890625 
L 10.015625 52.203125 
Q 14.9375 54.109375 19.578125 55.046875 
Q 24.21875 56 28.609375 56 
Q 40.484375 56 46.34375 49.84375 
Q 52.203125 43.703125 52.203125 31.203125 
z
" id="DejaVuSans-97"/>
      <path d="M 48.78125 52.59375 
L 48.78125 44.1875 
Q 44.96875 46.296875 41.140625 47.34375 
Q 37.3125 48.390625 33.40625 48.390625 
Q 24.65625 48.390625 19.8125 42.84375 
Q 14.984375 37.3125 14.984375 27.296875 
Q 14.984375 17.28125 19.8125 11.734375 
Q 24.65625 6.203125 33.40625 6.203125 
Q 37.3125 6.203125 41.140625 7.25 
Q 44.96875 8.296875 48.78125 10.40625 
L 48.78125 2.09375 
Q 45.015625 0.34375 40.984375 -0.53125 
Q 36.96875 -1.421875 32.421875 -1.421875 
Q 20.0625 -1.421875 12.78125 6.34375 
Q 5.515625 14.109375 5.515625 27.296875 
Q 5.515625 40.671875 12.859375 48.328125 
Q 20.21875 56 33.015625 56 
Q 37.15625 56 41.109375 55.140625 
Q 45.0625 54.296875 48.78125 52.59375 
z
" id="DejaVuSans-99"/>
      <path d="M 50.984375 -16.609375 
L 50.984375 -23.578125 
L -0.984375 -23.578125 
L -0.984375 -16.609375 
z
" id="DejaVuSans-95"/>
      <path d="M 44.28125 53.078125 
L 44.28125 44.578125 
Q 40.484375 46.53125 36.375 47.5 
Q 32.28125 48.484375 27.875 48.484375 
Q 21.1875 48.484375 17.84375 46.4375 
Q 14.5 44.390625 14.5 40.28125 
Q 14.5 37.15625 16.890625 35.375 
Q 19.28125 33.59375 26.515625 31.984375 
L 29.59375 31.296875 
Q 39.15625 29.25 43.1875 25.515625 
Q 47.21875 21.78125 47.21875 15.09375 
Q 47.21875 7.46875 41.1875 3.015625 
Q 35.15625 -1.421875 24.609375 -1.421875 
Q 20.21875 -1.421875 15.453125 -0.5625 
Q 10.6875 0.296875 5.421875 2 
L 5.421875 11.28125 
Q 10.40625 8.6875 15.234375 7.390625 
Q 20.0625 6.109375 24.8125 6.109375 
Q 31.15625 6.109375 34.5625 8.28125 
Q 37.984375 10.453125 37.984375 14.40625 
Q 37.984375 18.0625 35.515625 20.015625 
Q 33.0625 21.96875 24.703125 23.78125 
L 21.578125 24.515625 
Q 13.234375 26.265625 9.515625 29.90625 
Q 5.8125 33.546875 5.8125 39.890625 
Q 5.8125 47.609375 11.28125 51.796875 
Q 16.75 56 26.8125 56 
Q 31.78125 56 36.171875 55.265625 
Q 40.578125 54.546875 44.28125 53.078125 
z
" id="DejaVuSans-115"/>
     </defs>
     <g transform="translate(363.527187 417.068562)scale(0.1 -0.1)">
      <use xlink:href="#DejaVuSans-102"/>
      <use x="35.205078" xlink:href="#DejaVuSans-114"/>
      <use x="76.318359" xlink:href="#DejaVuSans-97"/>
      <use x="137.597656" xlink:href="#DejaVuSans-99"/>
      <use x="192.578125" xlink:href="#DejaVuSans-95"/>
      <use x="242.578125" xlink:href="#DejaVuSans-114"/>
      <use x="283.691406" xlink:href="#DejaVuSans-115"/>
     </g>
    </g>
   </g>
   <g id="matplotlib.axis_2">
    <g id="ytick_1">
     <g id="line2d_56">
      <path clip-path="url(#p7385e4a1d7)" d="M 197.1125 38.245896 
L 563.52 38.245896 
" style="fill:none;stroke:#b0b0b0;stroke-linecap:square;stroke-opacity:0.5;stroke-width:0.8;"/>
     </g>
     <g id="line2d_57">
      <defs>
       <path d="M 0 0 
L -3.5 0 
" id="meab0e8d5e5" style="stroke:#000000;stroke-width:0.8;"/>
      </defs>
      <g>
       <use style="stroke:#000000;stroke-width:0.8;" x="197.1125" xlink:href="#meab0e8d5e5" y="38.245896"/>
      </g>
     </g>
     <g id="text_8">
      <!-- libRTS.so -->
      <defs>
       <path d="M 9.421875 75.984375 
L 18.40625 75.984375 
L 18.40625 0 
L 9.421875 0 
z
" id="DejaVuSans-108"/>
       <path d="M 9.421875 54.6875 
L 18.40625 54.6875 
L 18.40625 0 
L 9.421875 0 
z
M 9.421875 75.984375 
L 18.40625 75.984375 
L 18.40625 64.59375 
L 9.421875 64.59375 
z
" id="DejaVuSans-105"/>
       <path d="M 48.6875 27.296875 
Q 48.6875 37.203125 44.609375 42.84375 
Q 40.53125 48.484375 33.40625 48.484375 
Q 26.265625 48.484375 22.1875 42.84375 
Q 18.109375 37.203125 18.109375 27.296875 
Q 18.109375 17.390625 22.1875 11.75 
Q 26.265625 6.109375 33.40625 6.109375 
Q 40.53125 6.109375 44.609375 11.75 
Q 48.6875 17.390625 48.6875 27.296875 
z
M 18.109375 46.390625 
Q 20.953125 51.265625 25.265625 53.625 
Q 29.59375 56 35.59375 56 
Q 45.5625 56 51.78125 48.09375 
Q 58.015625 40.1875 58.015625 27.296875 
Q 58.015625 14.40625 51.78125 6.484375 
Q 45.5625 -1.421875 35.59375 -1.421875 
Q 29.59375 -1.421875 25.265625 0.953125 
Q 20.953125 3.328125 18.109375 8.203125 
L 18.109375 0 
L 9.078125 0 
L 9.078125 75.984375 
L 18.109375 75.984375 
z
" id="DejaVuSans-98"/>
       <path d="M 44.390625 34.1875 
Q 47.5625 33.109375 50.5625 29.59375 
Q 53.5625 26.078125 56.59375 19.921875 
L 66.609375 0 
L 56 0 
L 46.6875 18.703125 
Q 43.0625 26.03125 39.671875 28.421875 
Q 36.28125 30.8125 30.421875 30.8125 
L 19.671875 30.8125 
L 19.671875 0 
L 9.8125 0 
L 9.8125 72.90625 
L 32.078125 72.90625 
Q 44.578125 72.90625 50.734375 67.671875 
Q 56.890625 62.453125 56.890625 51.90625 
Q 56.890625 45.015625 53.6875 40.46875 
Q 50.484375 35.9375 44.390625 34.1875 
z
M 19.671875 64.796875 
L 19.671875 38.921875 
L 32.078125 38.921875 
Q 39.203125 38.921875 42.84375 42.21875 
Q 46.484375 45.515625 46.484375 51.90625 
Q 46.484375 58.296875 42.84375 61.546875 
Q 39.203125 64.796875 32.078125 64.796875 
z
" id="DejaVuSans-82"/>
       <path d="M -0.296875 72.90625 
L 61.375 72.90625 
L 61.375 64.59375 
L 35.5 64.59375 
L 35.5 0 
L 25.59375 0 
L 25.59375 64.59375 
L -0.296875 64.59375 
z
" id="DejaVuSans-84"/>
       <path d="M 53.515625 70.515625 
L 53.515625 60.890625 
Q 47.90625 63.578125 42.921875 64.890625 
Q 37.9375 66.21875 33.296875 66.21875 
Q 25.25 66.21875 20.875 63.09375 
Q 16.5 59.96875 16.5 54.203125 
Q 16.5 49.359375 19.40625 46.890625 
Q 22.3125 44.4375 30.421875 42.921875 
L 36.375 41.703125 
Q 47.40625 39.59375 52.65625 34.296875 
Q 57.90625 29 57.90625 20.125 
Q 57.90625 9.515625 50.796875 4.046875 
Q 43.703125 -1.421875 29.984375 -1.421875 
Q 24.8125 -1.421875 18.96875 -0.25 
Q 13.140625 0.921875 6.890625 3.21875 
L 6.890625 13.375 
Q 12.890625 10.015625 18.65625 8.296875 
Q 24.421875 6.59375 29.984375 6.59375 
Q 38.421875 6.59375 43.015625 9.90625 
Q 47.609375 13.234375 47.609375 19.390625 
Q 47.609375 24.75 44.3125 27.78125 
Q 41.015625 30.8125 33.5 32.328125 
L 27.484375 33.5 
Q 16.453125 35.6875 11.515625 40.375 
Q 6.59375 45.0625 6.59375 53.421875 
Q 6.59375 63.09375 13.40625 68.65625 
Q 20.21875 74.21875 32.171875 74.21875 
Q 37.3125 74.21875 42.625 73.28125 
Q 47.953125 72.359375 53.515625 70.515625 
z
" id="DejaVuSans-83"/>
       <path d="M 10.6875 12.40625 
L 21 12.40625 
L 21 0 
L 10.6875 0 
z
" id="DejaVuSans-46"/>
       <path d="M 30.609375 48.390625 
Q 23.390625 48.390625 19.1875 42.75 
Q 14.984375 37.109375 14.984375 27.296875 
Q 14.984375 17.484375 19.15625 11.84375 
Q 23.34375 6.203125 30.609375 6.203125 
Q 37.796875 6.203125 41.984375 11.859375 
Q 46.1875 17.53125 46.1875 27.296875 
Q 46.1875 37.015625 41.984375 42.703125 
Q 37.796875 48.390625 30.609375 48.390625 
z
M 30.609375 56 
Q 42.328125 56 49.015625 48.375 
Q 55.71875 40.765625 55.71875 27.296875 
Q 55.71875 13.875 49.015625 6.21875 
Q 42.328125 -1.421875 30.609375 -1.421875 
Q 18.84375 -1.421875 12.171875 6.21875 
Q 5.515625 13.875 5.515625 27.296875 
Q 5.515625 40.765625 12.171875 48.375 
Q 18.84375 56 30.609375 56 
z
" id="DejaVuSans-111"/>
      </defs>
      <g transform="translate(144.307813 42.045115)scale(0.1 -0.1)">
       <use xlink:href="#DejaVuSans-108"/>
       <use x="27.783203" xlink:href="#DejaVuSans-105"/>
       <use x="55.566406" xlink:href="#DejaVuSans-98"/>
       <use x="119.042969" xlink:href="#DejaVuSans-82"/>
       <use x="188.416016" xlink:href="#DejaVuSans-84"/>
       <use x="249.5" xlink:href="#DejaVuSans-83"/>
       <use x="312.976562" xlink:href="#DejaVuSans-46"/>
       <use x="344.763672" xlink:href="#DejaVuSans-115"/>
       <use x="396.863281" xlink:href="#DejaVuSans-111"/>
      </g>
     </g>
    </g>
    <g id="ytick_2">
     <g id="line2d_58">
      <path clip-path="url(#p7385e4a1d7)" d="M 197.1125 59.89791 
L 563.52 59.89791 
" style="fill:none;stroke:#b0b0b0;stroke-linecap:square;stroke-opacity:0.5;stroke-width:0.8;"/>
     </g>
     <g id="line2d_59">
      <g>
       <use style="stroke:#000000;stroke-width:0.8;" x="197.1125" xlink:href="#meab0e8d5e5" y="59.89791"/>
      </g>
     </g>
     <g id="text_9">
      <!-- libStEvent.so -->
      <defs>
       <path d="M 18.3125 70.21875 
L 18.3125 54.6875 
L 36.8125 54.6875 
L 36.8125 47.703125 
L 18.3125 47.703125 
L 18.3125 18.015625 
Q 18.3125 11.328125 20.140625 9.421875 
Q 21.96875 7.515625 27.59375 7.515625 
L 36.8125 7.515625 
L 36.8125 0 
L 27.59375 0 
Q 17.1875 0 13.234375 3.875 
Q 9.28125 7.765625 9.28125 18.015625 
L 9.28125 47.703125 
L 2.6875 47.703125 
L 2.6875 54.6875 
L 9.28125 54.6875 
L 9.28125 70.21875 
z
" id="DejaVuSans-116"/>
       <path d="M 9.8125 72.90625 
L 55.90625 72.90625 
L 55.90625 64.59375 
L 19.671875 64.59375 
L 19.671875 43.015625 
L 54.390625 43.015625 
L 54.390625 34.71875 
L 19.671875 34.71875 
L 19.671875 8.296875 
L 56.78125 8.296875 
L 56.78125 0 
L 9.8125 0 
z
" id="DejaVuSans-69"/>
       <path d="M 2.984375 54.6875 
L 12.5 54.6875 
L 29.59375 8.796875 
L 46.6875 54.6875 
L 56.203125 54.6875 
L 35.6875 0 
L 23.484375 0 
z
" id="DejaVuSans-118"/>
       <path d="M 56.203125 29.59375 
L 56.203125 25.203125 
L 14.890625 25.203125 
Q 15.484375 15.921875 20.484375 11.0625 
Q 25.484375 6.203125 34.421875 6.203125 
Q 39.59375 6.203125 44.453125 7.46875 
Q 49.3125 8.734375 54.109375 11.28125 
L 54.109375 2.78125 
Q 49.265625 0.734375 44.1875 -0.34375 
Q 39.109375 -1.421875 33.890625 -1.421875 
Q 20.796875 -1.421875 13.15625 6.1875 
Q 5.515625 13.8125 5.515625 26.8125 
Q 5.515625 40.234375 12.765625 48.109375 
Q 20.015625 56 32.328125 56 
Q 43.359375 56 49.78125 48.890625 
Q 56.203125 41.796875 56.203125 29.59375 
z
M 47.21875 32.234375 
Q 47.125 39.59375 43.09375 43.984375 
Q 39.0625 48.390625 32.421875 48.390625 
Q 24.90625 48.390625 20.390625 44.140625 
Q 15.875 39.890625 15.1875 32.171875 
z
" id="DejaVuSans-101"/>
       <path d="M 54.890625 33.015625 
L 54.890625 0 
L 45.90625 0 
L 45.90625 32.71875 
Q 45.90625 40.484375 42.875 44.328125 
Q 39.84375 48.1875 33.796875 48.1875 
Q 26.515625 48.1875 22.3125 43.546875 
Q 18.109375 38.921875 18.109375 30.90625 
L 18.109375 0 
L 9.078125 0 
L 9.078125 54.6875 
L 18.109375 54.6875 
L 18.109375 46.1875 
Q 21.34375 51.125 25.703125 53.5625 
Q 30.078125 56 35.796875 56 
Q 45.21875 56 50.046875 50.171875 
Q 54.890625 44.34375 54.890625 33.015625 
z
" id="DejaVuSans-110"/>
      </defs>
      <g transform="translate(124.784375 63.697129)scale(0.1 -0.1)">
       <use xlink:href="#DejaVuSans-108"/>
       <use x="27.783203" xlink:href="#DejaVuSans-105"/>
       <use x="55.566406" xlink:href="#DejaVuSans-98"/>
       <use x="119.042969" xlink:href="#DejaVuSans-83"/>
       <use x="182.519531" xlink:href="#DejaVuSans-116"/>
       <use x="221.728516" xlink:href="#DejaVuSans-69"/>
       <use x="284.912109" xlink:href="#DejaVuSans-118"/>
       <use x="344.091797" xlink:href="#DejaVuSans-101"/>
       <use x="405.615234" xlink:href="#DejaVuSans-110"/>
       <use x="468.994141" xlink:href="#DejaVuSans-116"/>
       <use x="508.203125" xlink:href="#DejaVuSans-46"/>
       <use x="539.990234" xlink:href="#DejaVuSans-115"/>
       <use x="592.089844" xlink:href="#DejaVuSans-111"/>
      </g>
     </g>
    </g>
    <g id="ytick_3">
     <g id="line2d_60">
      <path clip-path="url(#p7385e4a1d7)" d="M 197.1125 81.549924 
L 563.52 81.549924 
" style="fill:none;stroke:#b0b0b0;stroke-linecap:square;stroke-opacity:0.5;stroke-width:0.8;"/>
     </g>
     <g id="line2d_61">
      <g>
       <use style="stroke:#000000;stroke-width:0.8;" x="197.1125" xlink:href="#meab0e8d5e5" y="81.549924"/>
      </g>
     </g>
     <g id="text_10">
      <!-- libStEventCompendiumMaker.so -->
      <defs>
       <path d="M 64.40625 67.28125 
L 64.40625 56.890625 
Q 59.421875 61.53125 53.78125 63.8125 
Q 48.140625 66.109375 41.796875 66.109375 
Q 29.296875 66.109375 22.65625 58.46875 
Q 16.015625 50.828125 16.015625 36.375 
Q 16.015625 21.96875 22.65625 14.328125 
Q 29.296875 6.6875 41.796875 6.6875 
Q 48.140625 6.6875 53.78125 8.984375 
Q 59.421875 11.28125 64.40625 15.921875 
L 64.40625 5.609375 
Q 59.234375 2.09375 53.4375 0.328125 
Q 47.65625 -1.421875 41.21875 -1.421875 
Q 24.65625 -1.421875 15.125 8.703125 
Q 5.609375 18.84375 5.609375 36.375 
Q 5.609375 53.953125 15.125 64.078125 
Q 24.65625 74.21875 41.21875 74.21875 
Q 47.75 74.21875 53.53125 72.484375 
Q 59.328125 70.75 64.40625 67.28125 
z
" id="DejaVuSans-67"/>
       <path d="M 52 44.1875 
Q 55.375 50.25 60.0625 53.125 
Q 64.75 56 71.09375 56 
Q 79.640625 56 84.28125 50.015625 
Q 88.921875 44.046875 88.921875 33.015625 
L 88.921875 0 
L 79.890625 0 
L 79.890625 32.71875 
Q 79.890625 40.578125 77.09375 44.375 
Q 74.3125 48.1875 68.609375 48.1875 
Q 61.625 48.1875 57.5625 43.546875 
Q 53.515625 38.921875 53.515625 30.90625 
L 53.515625 0 
L 44.484375 0 
L 44.484375 32.71875 
Q 44.484375 40.625 41.703125 44.40625 
Q 38.921875 48.1875 33.109375 48.1875 
Q 26.21875 48.1875 22.15625 43.53125 
Q 18.109375 38.875 18.109375 30.90625 
L 18.109375 0 
L 9.078125 0 
L 9.078125 54.6875 
L 18.109375 54.6875 
L 18.109375 46.1875 
Q 21.1875 51.21875 25.484375 53.609375 
Q 29.78125 56 35.6875 56 
Q 41.65625 56 45.828125 52.96875 
Q 50 49.953125 52 44.1875 
z
" id="DejaVuSans-109"/>
       <path d="M 18.109375 8.203125 
L 18.109375 -20.796875 
L 9.078125 -20.796875 
L 9.078125 54.6875 
L 18.109375 54.6875 
L 18.109375 46.390625 
Q 20.953125 51.265625 25.265625 53.625 
Q 29.59375 56 35.59375 56 
Q 45.5625 56 51.78125 48.09375 
Q 58.015625 40.1875 58.015625 27.296875 
Q 58.015625 14.40625 51.78125 6.484375 
Q 45.5625 -1.421875 35.59375 -1.421875 
Q 29.59375 -1.421875 25.265625 0.953125 
Q 20.953125 3.328125 18.109375 8.203125 
z
M 48.6875 27.296875 
Q 48.6875 37.203125 44.609375 42.84375 
Q 40.53125 48.484375 33.40625 48.484375 
Q 26.265625 48.484375 22.1875 42.84375 
Q 18.109375 37.203125 18.109375 27.296875 
Q 18.109375 17.390625 22.1875 11.75 
Q 26.265625 6.109375 33.40625 6.109375 
Q 40.53125 6.109375 44.609375 11.75 
Q 48.6875 17.390625 48.6875 27.296875 
z
" id="DejaVuSans-112"/>
       <path d="M 45.40625 46.390625 
L 45.40625 75.984375 
L 54.390625 75.984375 
L 54.390625 0 
L 45.40625 0 
L 45.40625 8.203125 
Q 42.578125 3.328125 38.25 0.953125 
Q 33.9375 -1.421875 27.875 -1.421875 
Q 17.96875 -1.421875 11.734375 6.484375 
Q 5.515625 14.40625 5.515625 27.296875 
Q 5.515625 40.1875 11.734375 48.09375 
Q 17.96875 56 27.875 56 
Q 33.9375 56 38.25 53.625 
Q 42.578125 51.265625 45.40625 46.390625 
z
M 14.796875 27.296875 
Q 14.796875 17.390625 18.875 11.75 
Q 22.953125 6.109375 30.078125 6.109375 
Q 37.203125 6.109375 41.296875 11.75 
Q 45.40625 17.390625 45.40625 27.296875 
Q 45.40625 37.203125 41.296875 42.84375 
Q 37.203125 48.484375 30.078125 48.484375 
Q 22.953125 48.484375 18.875 42.84375 
Q 14.796875 37.203125 14.796875 27.296875 
z
" id="DejaVuSans-100"/>
       <path d="M 8.5 21.578125 
L 8.5 54.6875 
L 17.484375 54.6875 
L 17.484375 21.921875 
Q 17.484375 14.15625 20.5 10.265625 
Q 23.53125 6.390625 29.59375 6.390625 
Q 36.859375 6.390625 41.078125 11.03125 
Q 45.3125 15.671875 45.3125 23.6875 
L 45.3125 54.6875 
L 54.296875 54.6875 
L 54.296875 0 
L 45.3125 0 
L 45.3125 8.40625 
Q 42.046875 3.421875 37.71875 1 
Q 33.40625 -1.421875 27.6875 -1.421875 
Q 18.265625 -1.421875 13.375 4.4375 
Q 8.5 10.296875 8.5 21.578125 
z
M 31.109375 56 
z
" id="DejaVuSans-117"/>
       <path d="M 9.8125 72.90625 
L 24.515625 72.90625 
L 43.109375 23.296875 
L 61.8125 72.90625 
L 76.515625 72.90625 
L 76.515625 0 
L 66.890625 0 
L 66.890625 64.015625 
L 48.09375 14.015625 
L 38.1875 14.015625 
L 19.390625 64.015625 
L 19.390625 0 
L 9.8125 0 
z
" id="DejaVuSans-77"/>
       <path d="M 9.078125 75.984375 
L 18.109375 75.984375 
L 18.109375 31.109375 
L 44.921875 54.6875 
L 56.390625 54.6875 
L 27.390625 29.109375 
L 57.625 0 
L 45.90625 0 
L 18.109375 26.703125 
L 18.109375 0 
L 9.078125 0 
z
" id="DejaVuSans-107"/>
      </defs>
      <g transform="translate(27.10625 85.349143)scale(0.1 -0.1)">
       <use xlink:href="#DejaVuSans-108"/>
       <use x="27.783203" xlink:href="#DejaVuSans-105"/>
       <use x="55.566406" xlink:href="#DejaVuSans-98"/>
       <use x="119.042969" xlink:href="#DejaVuSans-83"/>
       <use x="182.519531" xlink:href="#DejaVuSans-116"/>
       <use x="221.728516" xlink:href="#DejaVuSans-69"/>
       <use x="284.912109" xlink:href="#DejaVuSans-118"/>
       <use x="344.091797" xlink:href="#DejaVuSans-101"/>
       <use x="405.615234" xlink:href="#DejaVuSans-110"/>
       <use x="468.994141" xlink:href="#DejaVuSans-116"/>
       <use x="508.203125" xlink:href="#DejaVuSans-67"/>
       <use x="578.027344" xlink:href="#DejaVuSans-111"/>
       <use x="639.208984" xlink:href="#DejaVuSans-109"/>
       <use x="736.621094" xlink:href="#DejaVuSans-112"/>
       <use x="800.097656" xlink:href="#DejaVuSans-101"/>
       <use x="861.621094" xlink:href="#DejaVuSans-110"/>
       <use x="925" xlink:href="#DejaVuSans-100"/>
       <use x="988.476562" xlink:href="#DejaVuSans-105"/>
       <use x="1016.259766" xlink:href="#DejaVuSans-117"/>
       <use x="1079.638672" xlink:href="#DejaVuSans-109"/>
       <use x="1177.050781" xlink:href="#DejaVuSans-77"/>
       <use x="1263.330078" xlink:href="#DejaVuSans-97"/>
       <use x="1324.609375" xlink:href="#DejaVuSans-107"/>
       <use x="1382.472656" xlink:href="#DejaVuSans-101"/>
       <use x="1443.996094" xlink:href="#DejaVuSans-114"/>
       <use x="1484.96875" xlink:href="#DejaVuSans-46"/>
       <use x="1516.755859" xlink:href="#DejaVuSans-115"/>
       <use x="1568.855469" xlink:href="#DejaVuSans-111"/>
      </g>
     </g>
    </g>
    <g id="ytick_4">
     <g id="line2d_62">
      <path clip-path="url(#p7385e4a1d7)" d="M 197.1125 103.201938 
L 563.52 103.201938 
" style="fill:none;stroke:#b0b0b0;stroke-linecap:square;stroke-opacity:0.5;stroke-width:0.8;"/>
     </g>
     <g id="line2d_63">
      <g>
       <use style="stroke:#000000;stroke-width:0.8;" x="197.1125" xlink:href="#meab0e8d5e5" y="103.201938"/>
      </g>
     </g>
     <g id="text_11">
      <!-- libStEventMaker.so -->
      <g transform="translate(93.992188 107.001157)scale(0.1 -0.1)">
       <use xlink:href="#DejaVuSans-108"/>
       <use x="27.783203" xlink:href="#DejaVuSans-105"/>
       <use x="55.566406" xlink:href="#DejaVuSans-98"/>
       <use x="119.042969" xlink:href="#DejaVuSans-83"/>
       <use x="182.519531" xlink:href="#DejaVuSans-116"/>
       <use x="221.728516" xlink:href="#DejaVuSans-69"/>
       <use x="284.912109" xlink:href="#DejaVuSans-118"/>
       <use x="344.091797" xlink:href="#DejaVuSans-101"/>
       <use x="405.615234" xlink:href="#DejaVuSans-110"/>
       <use x="468.994141" xlink:href="#DejaVuSans-116"/>
       <use x="508.203125" xlink:href="#DejaVuSans-77"/>
       <use x="594.482422" xlink:href="#DejaVuSans-97"/>
       <use x="655.761719" xlink:href="#DejaVuSans-107"/>
       <use x="713.625" xlink:href="#DejaVuSans-101"/>
       <use x="775.148438" xlink:href="#DejaVuSans-114"/>
       <use x="816.121094" xlink:href="#DejaVuSans-46"/>
       <use x="847.908203" xlink:href="#DejaVuSans-115"/>
       <use x="900.007812" xlink:href="#DejaVuSans-111"/>
      </g>
     </g>
    </g>
    <g id="ytick_5">
     <g id="line2d_64">
      <path clip-path="url(#p7385e4a1d7)" d="M 197.1125 124.853952 
L 563.52 124.853952 
" style="fill:none;stroke:#b0b0b0;stroke-linecap:square;stroke-opacity:0.5;stroke-width:0.8;"/>
     </g>
     <g id="line2d_65">
      <g>
       <use style="stroke:#000000;stroke-width:0.8;" x="197.1125" xlink:href="#meab0e8d5e5" y="124.853952"/>
      </g>
     </g>
     <g id="text_12">
      <!-- libStEventUtilities.so -->
      <defs>
       <path d="M 8.6875 72.90625 
L 18.609375 72.90625 
L 18.609375 28.609375 
Q 18.609375 16.890625 22.84375 11.734375 
Q 27.09375 6.59375 36.625 6.59375 
Q 46.09375 6.59375 50.34375 11.734375 
Q 54.59375 16.890625 54.59375 28.609375 
L 54.59375 72.90625 
L 64.5 72.90625 
L 64.5 27.390625 
Q 64.5 13.140625 57.4375 5.859375 
Q 50.390625 -1.421875 36.625 -1.421875 
Q 22.796875 -1.421875 15.734375 5.859375 
Q 8.6875 13.140625 8.6875 27.390625 
z
" id="DejaVuSans-85"/>
      </defs>
      <g transform="translate(87.15 128.65317)scale(0.1 -0.1)">
       <use xlink:href="#DejaVuSans-108"/>
       <use x="27.783203" xlink:href="#DejaVuSans-105"/>
       <use x="55.566406" xlink:href="#DejaVuSans-98"/>
       <use x="119.042969" xlink:href="#DejaVuSans-83"/>
       <use x="182.519531" xlink:href="#DejaVuSans-116"/>
       <use x="221.728516" xlink:href="#DejaVuSans-69"/>
       <use x="284.912109" xlink:href="#DejaVuSans-118"/>
       <use x="344.091797" xlink:href="#DejaVuSans-101"/>
       <use x="405.615234" xlink:href="#DejaVuSans-110"/>
       <use x="468.994141" xlink:href="#DejaVuSans-116"/>
       <use x="508.203125" xlink:href="#DejaVuSans-85"/>
       <use x="581.396484" xlink:href="#DejaVuSans-116"/>
       <use x="620.605469" xlink:href="#DejaVuSans-105"/>
       <use x="648.388672" xlink:href="#DejaVuSans-108"/>
       <use x="676.171875" xlink:href="#DejaVuSans-105"/>
       <use x="703.955078" xlink:href="#DejaVuSans-116"/>
       <use x="743.164062" xlink:href="#DejaVuSans-105"/>
       <use x="770.947266" xlink:href="#DejaVuSans-101"/>
       <use x="832.470703" xlink:href="#DejaVuSans-115"/>
       <use x="884.570312" xlink:href="#DejaVuSans-46"/>
       <use x="916.357422" xlink:href="#DejaVuSans-115"/>
       <use x="968.457031" xlink:href="#DejaVuSans-111"/>
      </g>
     </g>
    </g>
    <g id="ytick_6">
     <g id="line2d_66">
      <path clip-path="url(#p7385e4a1d7)" d="M 197.1125 146.505965 
L 563.52 146.505965 
" style="fill:none;stroke:#b0b0b0;stroke-linecap:square;stroke-opacity:0.5;stroke-width:0.8;"/>
     </g>
     <g id="line2d_67">
      <g>
       <use style="stroke:#000000;stroke-width:0.8;" x="197.1125" xlink:href="#meab0e8d5e5" y="146.505965"/>
      </g>
     </g>
     <g id="text_13">
      <!-- libStGenericVertexMakerNoSti.so -->
      <defs>
       <path d="M 59.515625 10.40625 
L 59.515625 29.984375 
L 43.40625 29.984375 
L 43.40625 38.09375 
L 69.28125 38.09375 
L 69.28125 6.78125 
Q 63.578125 2.734375 56.6875 0.65625 
Q 49.8125 -1.421875 42 -1.421875 
Q 24.90625 -1.421875 15.25 8.5625 
Q 5.609375 18.5625 5.609375 36.375 
Q 5.609375 54.25 15.25 64.234375 
Q 24.90625 74.21875 42 74.21875 
Q 49.125 74.21875 55.546875 72.453125 
Q 61.96875 70.703125 67.390625 67.28125 
L 67.390625 56.78125 
Q 61.921875 61.421875 55.765625 63.765625 
Q 49.609375 66.109375 42.828125 66.109375 
Q 29.4375 66.109375 22.71875 58.640625 
Q 16.015625 51.171875 16.015625 36.375 
Q 16.015625 21.625 22.71875 14.15625 
Q 29.4375 6.6875 42.828125 6.6875 
Q 48.046875 6.6875 52.140625 7.59375 
Q 56.25 8.5 59.515625 10.40625 
z
" id="DejaVuSans-71"/>
       <path d="M 28.609375 0 
L 0.78125 72.90625 
L 11.078125 72.90625 
L 34.1875 11.53125 
L 57.328125 72.90625 
L 67.578125 72.90625 
L 39.796875 0 
z
" id="DejaVuSans-86"/>
       <path d="M 54.890625 54.6875 
L 35.109375 28.078125 
L 55.90625 0 
L 45.3125 0 
L 29.390625 21.484375 
L 13.484375 0 
L 2.875 0 
L 24.125 28.609375 
L 4.6875 54.6875 
L 15.28125 54.6875 
L 29.78125 35.203125 
L 44.28125 54.6875 
z
" id="DejaVuSans-120"/>
       <path d="M 9.8125 72.90625 
L 23.09375 72.90625 
L 55.421875 11.921875 
L 55.421875 72.90625 
L 64.984375 72.90625 
L 64.984375 0 
L 51.703125 0 
L 19.390625 60.984375 
L 19.390625 0 
L 9.8125 0 
z
" id="DejaVuSans-78"/>
      </defs>
      <g transform="translate(24.115625 150.305184)scale(0.1 -0.1)">
       <use xlink:href="#DejaVuSans-108"/>
       <use x="27.783203" xlink:href="#DejaVuSans-105"/>
       <use x="55.566406" xlink:href="#DejaVuSans-98"/>
       <use x="119.042969" xlink:href="#DejaVuSans-83"/>
       <use x="182.519531" xlink:href="#DejaVuSans-116"/>
       <use x="221.728516" xlink:href="#DejaVuSans-71"/>
       <use x="299.21875" xlink:href="#DejaVuSans-101"/>
       <use x="360.742188" xlink:href="#DejaVuSans-110"/>
       <use x="424.121094" xlink:href="#DejaVuSans-101"/>
       <use x="485.644531" xlink:href="#DejaVuSans-114"/>
       <use x="526.757812" xlink:href="#DejaVuSans-105"/>
       <use x="554.541016" xlink:href="#DejaVuSans-99"/>
       <use x="609.521484" xlink:href="#DejaVuSans-86"/>
       <use x="677.820312" xlink:href="#DejaVuSans-101"/>
       <use x="739.34375" xlink:href="#DejaVuSans-114"/>
       <use x="780.457031" xlink:href="#DejaVuSans-116"/>
       <use x="819.666016" xlink:href="#DejaVuSans-101"/>
       <use x="881.173828" xlink:href="#DejaVuSans-120"/>
       <use x="940.353516" xlink:href="#DejaVuSans-77"/>
       <use x="1026.632812" xlink:href="#DejaVuSans-97"/>
       <use x="1087.912109" xlink:href="#DejaVuSans-107"/>
       <use x="1145.775391" xlink:href="#DejaVuSans-101"/>
       <use x="1207.298828" xlink:href="#DejaVuSans-114"/>
       <use x="1248.412109" xlink:href="#DejaVuSans-78"/>
       <use x="1323.216797" xlink:href="#DejaVuSans-111"/>
       <use x="1384.398438" xlink:href="#DejaVuSans-83"/>
       <use x="1447.875" xlink:href="#DejaVuSans-116"/>
       <use x="1487.083984" xlink:href="#DejaVuSans-105"/>
       <use x="1514.867188" xlink:href="#DejaVuSans-46"/>
       <use x="1546.654297" xlink:href="#DejaVuSans-115"/>
       <use x="1598.753906" xlink:href="#DejaVuSans-111"/>
      </g>
     </g>
    </g>
    <g id="ytick_7">
     <g id="line2d_68">
      <path clip-path="url(#p7385e4a1d7)" d="M 197.1125 168.157979 
L 563.52 168.157979 
" style="fill:none;stroke:#b0b0b0;stroke-linecap:square;stroke-opacity:0.5;stroke-width:0.8;"/>
     </g>
     <g id="line2d_69">
      <g>
       <use style="stroke:#000000;stroke-width:0.8;" x="197.1125" xlink:href="#meab0e8d5e5" y="168.157979"/>
      </g>
     </g>
     <g id="text_14">
      <!-- libSti.so -->
      <g transform="translate(150.654688 171.957198)scale(0.1 -0.1)">
       <use xlink:href="#DejaVuSans-108"/>
       <use x="27.783203" xlink:href="#DejaVuSans-105"/>
       <use x="55.566406" xlink:href="#DejaVuSans-98"/>
       <use x="119.042969" xlink:href="#DejaVuSans-83"/>
       <use x="182.519531" xlink:href="#DejaVuSans-116"/>
       <use x="221.728516" xlink:href="#DejaVuSans-105"/>
       <use x="249.511719" xlink:href="#DejaVuSans-46"/>
       <use x="281.298828" xlink:href="#DejaVuSans-115"/>
       <use x="333.398438" xlink:href="#DejaVuSans-111"/>
      </g>
     </g>
    </g>
    <g id="ytick_8">
     <g id="line2d_70">
      <path clip-path="url(#p7385e4a1d7)" d="M 197.1125 189.809993 
L 563.52 189.809993 
" style="fill:none;stroke:#b0b0b0;stroke-linecap:square;stroke-opacity:0.5;stroke-width:0.8;"/>
     </g>
     <g id="line2d_71">
      <g>
       <use style="stroke:#000000;stroke-width:0.8;" x="197.1125" xlink:href="#meab0e8d5e5" y="189.809993"/>
      </g>
     </g>
     <g id="text_15">
      <!-- libStiCA.so -->
      <defs>
       <path d="M 34.1875 63.1875 
L 20.796875 26.90625 
L 47.609375 26.90625 
z
M 28.609375 72.90625 
L 39.796875 72.90625 
L 67.578125 0 
L 57.328125 0 
L 50.6875 18.703125 
L 17.828125 18.703125 
L 11.1875 0 
L 0.78125 0 
z
" id="DejaVuSans-65"/>
      </defs>
      <g transform="translate(136.832813 193.609212)scale(0.1 -0.1)">
       <use xlink:href="#DejaVuSans-108"/>
       <use x="27.783203" xlink:href="#DejaVuSans-105"/>
       <use x="55.566406" xlink:href="#DejaVuSans-98"/>
       <use x="119.042969" xlink:href="#DejaVuSans-83"/>
       <use x="182.519531" xlink:href="#DejaVuSans-116"/>
       <use x="221.728516" xlink:href="#DejaVuSans-105"/>
       <use x="249.511719" xlink:href="#DejaVuSans-67"/>
       <use x="319.335938" xlink:href="#DejaVuSans-65"/>
       <use x="387.728516" xlink:href="#DejaVuSans-46"/>
       <use x="419.515625" xlink:href="#DejaVuSans-115"/>
       <use x="471.615234" xlink:href="#DejaVuSans-111"/>
      </g>
     </g>
    </g>
    <g id="ytick_9">
     <g id="line2d_72">
      <path clip-path="url(#p7385e4a1d7)" d="M 197.1125 211.462007 
L 563.52 211.462007 
" style="fill:none;stroke:#b0b0b0;stroke-linecap:square;stroke-opacity:0.5;stroke-width:0.8;"/>
     </g>
     <g id="line2d_73">
      <g>
       <use style="stroke:#000000;stroke-width:0.8;" x="197.1125" xlink:href="#meab0e8d5e5" y="211.462007"/>
      </g>
     </g>
     <g id="text_16">
      <!-- libStiIst.so -->
      <defs>
       <path d="M 9.8125 72.90625 
L 19.671875 72.90625 
L 19.671875 0 
L 9.8125 0 
z
" id="DejaVuSans-73"/>
      </defs>
      <g transform="translate(138.575 215.261226)scale(0.1 -0.1)">
       <use xlink:href="#DejaVuSans-108"/>
       <use x="27.783203" xlink:href="#DejaVuSans-105"/>
       <use x="55.566406" xlink:href="#DejaVuSans-98"/>
       <use x="119.042969" xlink:href="#DejaVuSans-83"/>
       <use x="182.519531" xlink:href="#DejaVuSans-116"/>
       <use x="221.728516" xlink:href="#DejaVuSans-105"/>
       <use x="249.511719" xlink:href="#DejaVuSans-73"/>
       <use x="279.003906" xlink:href="#DejaVuSans-115"/>
       <use x="331.103516" xlink:href="#DejaVuSans-116"/>
       <use x="370.3125" xlink:href="#DejaVuSans-46"/>
       <use x="402.099609" xlink:href="#DejaVuSans-115"/>
       <use x="454.199219" xlink:href="#DejaVuSans-111"/>
      </g>
     </g>
    </g>
    <g id="ytick_10">
     <g id="line2d_74">
      <path clip-path="url(#p7385e4a1d7)" d="M 197.1125 233.114021 
L 563.52 233.114021 
" style="fill:none;stroke:#b0b0b0;stroke-linecap:square;stroke-opacity:0.5;stroke-width:0.8;"/>
     </g>
     <g id="line2d_75">
      <g>
       <use style="stroke:#000000;stroke-width:0.8;" x="197.1125" xlink:href="#meab0e8d5e5" y="233.114021"/>
      </g>
     </g>
     <g id="text_17">
      <!-- libStiMaker.so -->
      <g transform="translate(119.8625 236.913239)scale(0.1 -0.1)">
       <use xlink:href="#DejaVuSans-108"/>
       <use x="27.783203" xlink:href="#DejaVuSans-105"/>
       <use x="55.566406" xlink:href="#DejaVuSans-98"/>
       <use x="119.042969" xlink:href="#DejaVuSans-83"/>
       <use x="182.519531" xlink:href="#DejaVuSans-116"/>
       <use x="221.728516" xlink:href="#DejaVuSans-105"/>
       <use x="249.511719" xlink:href="#DejaVuSans-77"/>
       <use x="335.791016" xlink:href="#DejaVuSans-97"/>
       <use x="397.070312" xlink:href="#DejaVuSans-107"/>
       <use x="454.933594" xlink:href="#DejaVuSans-101"/>
       <use x="516.457031" xlink:href="#DejaVuSans-114"/>
       <use x="557.429688" xlink:href="#DejaVuSans-46"/>
       <use x="589.216797" xlink:href="#DejaVuSans-115"/>
       <use x="641.316406" xlink:href="#DejaVuSans-111"/>
      </g>
     </g>
    </g>
    <g id="ytick_11">
     <g id="line2d_76">
      <path clip-path="url(#p7385e4a1d7)" d="M 197.1125 254.766035 
L 563.52 254.766035 
" style="fill:none;stroke:#b0b0b0;stroke-linecap:square;stroke-opacity:0.5;stroke-width:0.8;"/>
     </g>
     <g id="line2d_77">
      <g>
       <use style="stroke:#000000;stroke-width:0.8;" x="197.1125" xlink:href="#meab0e8d5e5" y="254.766035"/>
      </g>
     </g>
     <g id="text_18">
      <!-- libStiPxl.so -->
      <defs>
       <path d="M 19.671875 64.796875 
L 19.671875 37.40625 
L 32.078125 37.40625 
Q 38.96875 37.40625 42.71875 40.96875 
Q 46.484375 44.53125 46.484375 51.125 
Q 46.484375 57.671875 42.71875 61.234375 
Q 38.96875 64.796875 32.078125 64.796875 
z
M 9.8125 72.90625 
L 32.078125 72.90625 
Q 44.34375 72.90625 50.609375 67.359375 
Q 56.890625 61.8125 56.890625 51.125 
Q 56.890625 40.328125 50.609375 34.8125 
Q 44.34375 29.296875 32.078125 29.296875 
L 19.671875 29.296875 
L 19.671875 0 
L 9.8125 0 
z
" id="DejaVuSans-80"/>
      </defs>
      <g transform="translate(135.928125 258.565253)scale(0.1 -0.1)">
       <use xlink:href="#DejaVuSans-108"/>
       <use x="27.783203" xlink:href="#DejaVuSans-105"/>
       <use x="55.566406" xlink:href="#DejaVuSans-98"/>
       <use x="119.042969" xlink:href="#DejaVuSans-83"/>
       <use x="182.519531" xlink:href="#DejaVuSans-116"/>
       <use x="221.728516" xlink:href="#DejaVuSans-105"/>
       <use x="249.511719" xlink:href="#DejaVuSans-80"/>
       <use x="309.814453" xlink:href="#DejaVuSans-120"/>
       <use x="368.994141" xlink:href="#DejaVuSans-108"/>
       <use x="396.777344" xlink:href="#DejaVuSans-46"/>
       <use x="428.564453" xlink:href="#DejaVuSans-115"/>
       <use x="480.664062" xlink:href="#DejaVuSans-111"/>
      </g>
     </g>
    </g>
    <g id="ytick_12">
     <g id="line2d_78">
      <path clip-path="url(#p7385e4a1d7)" d="M 197.1125 276.418048 
L 563.52 276.418048 
" style="fill:none;stroke:#b0b0b0;stroke-linecap:square;stroke-opacity:0.5;stroke-width:0.8;"/>
     </g>
     <g id="line2d_79">
      <g>
       <use style="stroke:#000000;stroke-width:0.8;" x="197.1125" xlink:href="#meab0e8d5e5" y="276.418048"/>
      </g>
     </g>
     <g id="text_19">
      <!-- libStiRnD.so -->
      <defs>
       <path d="M 19.671875 64.796875 
L 19.671875 8.109375 
L 31.59375 8.109375 
Q 46.6875 8.109375 53.6875 14.9375 
Q 60.6875 21.78125 60.6875 36.53125 
Q 60.6875 51.171875 53.6875 57.984375 
Q 46.6875 64.796875 31.59375 64.796875 
z
M 9.8125 72.90625 
L 30.078125 72.90625 
Q 51.265625 72.90625 61.171875 64.09375 
Q 71.09375 55.28125 71.09375 36.53125 
Q 71.09375 17.671875 61.125 8.828125 
Q 51.171875 0 30.078125 0 
L 9.8125 0 
z
" id="DejaVuSans-68"/>
      </defs>
      <g transform="translate(129.66875 280.217267)scale(0.1 -0.1)">
       <use xlink:href="#DejaVuSans-108"/>
       <use x="27.783203" xlink:href="#DejaVuSans-105"/>
       <use x="55.566406" xlink:href="#DejaVuSans-98"/>
       <use x="119.042969" xlink:href="#DejaVuSans-83"/>
       <use x="182.519531" xlink:href="#DejaVuSans-116"/>
       <use x="221.728516" xlink:href="#DejaVuSans-105"/>
       <use x="249.511719" xlink:href="#DejaVuSans-82"/>
       <use x="318.994141" xlink:href="#DejaVuSans-110"/>
       <use x="382.373047" xlink:href="#DejaVuSans-68"/>
       <use x="459.375" xlink:href="#DejaVuSans-46"/>
       <use x="491.162109" xlink:href="#DejaVuSans-115"/>
       <use x="543.261719" xlink:href="#DejaVuSans-111"/>
      </g>
     </g>
    </g>
    <g id="ytick_13">
     <g id="line2d_80">
      <path clip-path="url(#p7385e4a1d7)" d="M 197.1125 298.070062 
L 563.52 298.070062 
" style="fill:none;stroke:#b0b0b0;stroke-linecap:square;stroke-opacity:0.5;stroke-width:0.8;"/>
     </g>
     <g id="line2d_81">
      <g>
       <use style="stroke:#000000;stroke-width:0.8;" x="197.1125" xlink:href="#meab0e8d5e5" y="298.070062"/>
      </g>
     </g>
     <g id="text_20">
      <!-- libStiSsd.so -->
      <g transform="translate(132.748438 301.869281)scale(0.1 -0.1)">
       <use xlink:href="#DejaVuSans-108"/>
       <use x="27.783203" xlink:href="#DejaVuSans-105"/>
       <use x="55.566406" xlink:href="#DejaVuSans-98"/>
       <use x="119.042969" xlink:href="#DejaVuSans-83"/>
       <use x="182.519531" xlink:href="#DejaVuSans-116"/>
       <use x="221.728516" xlink:href="#DejaVuSans-105"/>
       <use x="249.511719" xlink:href="#DejaVuSans-83"/>
       <use x="312.988281" xlink:href="#DejaVuSans-115"/>
       <use x="365.087891" xlink:href="#DejaVuSans-100"/>
       <use x="428.564453" xlink:href="#DejaVuSans-46"/>
       <use x="460.351562" xlink:href="#DejaVuSans-115"/>
       <use x="512.451172" xlink:href="#DejaVuSans-111"/>
      </g>
     </g>
    </g>
    <g id="ytick_14">
     <g id="line2d_82">
      <path clip-path="url(#p7385e4a1d7)" d="M 197.1125 319.722076 
L 563.52 319.722076 
" style="fill:none;stroke:#b0b0b0;stroke-linecap:square;stroke-opacity:0.5;stroke-width:0.8;"/>
     </g>
     <g id="line2d_83">
      <g>
       <use style="stroke:#000000;stroke-width:0.8;" x="197.1125" xlink:href="#meab0e8d5e5" y="319.722076"/>
      </g>
     </g>
     <g id="text_21">
      <!-- libStiSvt.so -->
      <g transform="translate(134.467188 323.521295)scale(0.1 -0.1)">
       <use xlink:href="#DejaVuSans-108"/>
       <use x="27.783203" xlink:href="#DejaVuSans-105"/>
       <use x="55.566406" xlink:href="#DejaVuSans-98"/>
       <use x="119.042969" xlink:href="#DejaVuSans-83"/>
       <use x="182.519531" xlink:href="#DejaVuSans-116"/>
       <use x="221.728516" xlink:href="#DejaVuSans-105"/>
       <use x="249.511719" xlink:href="#DejaVuSans-83"/>
       <use x="312.988281" xlink:href="#DejaVuSans-118"/>
       <use x="372.167969" xlink:href="#DejaVuSans-116"/>
       <use x="411.376953" xlink:href="#DejaVuSans-46"/>
       <use x="443.164062" xlink:href="#DejaVuSans-115"/>
       <use x="495.263672" xlink:href="#DejaVuSans-111"/>
      </g>
     </g>
    </g>
    <g id="ytick_15">
     <g id="line2d_84">
      <path clip-path="url(#p7385e4a1d7)" d="M 197.1125 341.37409 
L 563.52 341.37409 
" style="fill:none;stroke:#b0b0b0;stroke-linecap:square;stroke-opacity:0.5;stroke-width:0.8;"/>
     </g>
     <g id="line2d_85">
      <g>
       <use style="stroke:#000000;stroke-width:0.8;" x="197.1125" xlink:href="#meab0e8d5e5" y="341.37409"/>
      </g>
     </g>
     <g id="text_22">
      <!-- libStiTpc.so -->
      <g transform="translate(132.7 345.173309)scale(0.1 -0.1)">
       <use xlink:href="#DejaVuSans-108"/>
       <use x="27.783203" xlink:href="#DejaVuSans-105"/>
       <use x="55.566406" xlink:href="#DejaVuSans-98"/>
       <use x="119.042969" xlink:href="#DejaVuSans-83"/>
       <use x="182.519531" xlink:href="#DejaVuSans-116"/>
       <use x="221.728516" xlink:href="#DejaVuSans-105"/>
       <use x="249.511719" xlink:href="#DejaVuSans-84"/>
       <use x="310.595703" xlink:href="#DejaVuSans-112"/>
       <use x="374.072266" xlink:href="#DejaVuSans-99"/>
       <use x="429.052734" xlink:href="#DejaVuSans-46"/>
       <use x="460.839844" xlink:href="#DejaVuSans-115"/>
       <use x="512.939453" xlink:href="#DejaVuSans-111"/>
      </g>
     </g>
    </g>
    <g id="ytick_16">
     <g id="line2d_86">
      <path clip-path="url(#p7385e4a1d7)" d="M 197.1125 363.026104 
L 563.52 363.026104 
" style="fill:none;stroke:#b0b0b0;stroke-linecap:square;stroke-opacity:0.5;stroke-width:0.8;"/>
     </g>
     <g id="line2d_87">
      <g>
       <use style="stroke:#000000;stroke-width:0.8;" x="197.1125" xlink:href="#meab0e8d5e5" y="363.026104"/>
      </g>
     </g>
     <g id="text_23">
      <!-- libStiUtilities.so -->
      <g transform="translate(113.020313 366.825322)scale(0.1 -0.1)">
       <use xlink:href="#DejaVuSans-108"/>
       <use x="27.783203" xlink:href="#DejaVuSans-105"/>
       <use x="55.566406" xlink:href="#DejaVuSans-98"/>
       <use x="119.042969" xlink:href="#DejaVuSans-83"/>
       <use x="182.519531" xlink:href="#DejaVuSans-116"/>
       <use x="221.728516" xlink:href="#DejaVuSans-105"/>
       <use x="249.511719" xlink:href="#DejaVuSans-85"/>
       <use x="322.705078" xlink:href="#DejaVuSans-116"/>
       <use x="361.914062" xlink:href="#DejaVuSans-105"/>
       <use x="389.697266" xlink:href="#DejaVuSans-108"/>
       <use x="417.480469" xlink:href="#DejaVuSans-105"/>
       <use x="445.263672" xlink:href="#DejaVuSans-116"/>
       <use x="484.472656" xlink:href="#DejaVuSans-105"/>
       <use x="512.255859" xlink:href="#DejaVuSans-101"/>
       <use x="573.779297" xlink:href="#DejaVuSans-115"/>
       <use x="625.878906" xlink:href="#DejaVuSans-46"/>
       <use x="657.666016" xlink:href="#DejaVuSans-115"/>
       <use x="709.765625" xlink:href="#DejaVuSans-111"/>
      </g>
     </g>
    </g>
    <g id="text_24">
     <!-- name -->
     <g transform="translate(18.035938 214.815687)rotate(-90)scale(0.1 -0.1)">
      <use xlink:href="#DejaVuSans-110"/>
      <use x="63.378906" xlink:href="#DejaVuSans-97"/>
      <use x="124.658203" xlink:href="#DejaVuSans-109"/>
      <use x="222.070312" xlink:href="#DejaVuSans-101"/>
     </g>
    </g>
   </g>
   <g id="line2d_88">
    <path clip-path="url(#p7385e4a1d7)" d="M 0 0 
" style="fill:none;stroke:#424242;stroke-linecap:square;stroke-width:2.7;"/>
   </g>
   <g id="line2d_89">
    <path clip-path="url(#p7385e4a1d7)" d="M 0 0 
" style="fill:none;stroke:#424242;stroke-linecap:square;stroke-width:2.7;"/>
   </g>
   <g id="line2d_90">
    <path clip-path="url(#p7385e4a1d7)" d="M 0 0 
" style="fill:none;stroke:#424242;stroke-linecap:square;stroke-width:2.7;"/>
   </g>
   <g id="line2d_91">
    <path clip-path="url(#p7385e4a1d7)" d="M 0 0 
" style="fill:none;stroke:#424242;stroke-linecap:square;stroke-width:2.7;"/>
   </g>
   <g id="line2d_92">
    <path clip-path="url(#p7385e4a1d7)" d="M 0 0 
" style="fill:none;stroke:#424242;stroke-linecap:square;stroke-width:2.7;"/>
   </g>
   <g id="line2d_93">
    <path clip-path="url(#p7385e4a1d7)" d="M 0 0 
" style="fill:none;stroke:#424242;stroke-linecap:square;stroke-width:2.7;"/>
   </g>
   <g id="line2d_94">
    <path clip-path="url(#p7385e4a1d7)" d="M 0 0 
" style="fill:none;stroke:#424242;stroke-linecap:square;stroke-width:2.7;"/>
   </g>
   <g id="line2d_95">
    <path clip-path="url(#p7385e4a1d7)" d="M 0 0 
" style="fill:none;stroke:#424242;stroke-linecap:square;stroke-width:2.7;"/>
   </g>
   <g id="line2d_96">
    <path clip-path="url(#p7385e4a1d7)" d="M 0 0 
" style="fill:none;stroke:#424242;stroke-linecap:square;stroke-width:2.7;"/>
   </g>
   <g id="line2d_97">
    <path clip-path="url(#p7385e4a1d7)" d="M 0 0 
" style="fill:none;stroke:#424242;stroke-linecap:square;stroke-width:2.7;"/>
   </g>
   <g id="line2d_98">
    <path clip-path="url(#p7385e4a1d7)" d="M 0 0 
" style="fill:none;stroke:#424242;stroke-linecap:square;stroke-width:2.7;"/>
   </g>
   <g id="line2d_99">
    <path clip-path="url(#p7385e4a1d7)" d="M 0 0 
" style="fill:none;stroke:#424242;stroke-linecap:square;stroke-width:2.7;"/>
   </g>
   <g id="line2d_100">
    <path clip-path="url(#p7385e4a1d7)" d="M 0 0 
" style="fill:none;stroke:#424242;stroke-linecap:square;stroke-width:2.7;"/>
   </g>
   <g id="line2d_101">
    <path clip-path="url(#p7385e4a1d7)" d="M 0 0 
" style="fill:none;stroke:#424242;stroke-linecap:square;stroke-width:2.7;"/>
   </g>
   <g id="line2d_102">
    <path clip-path="url(#p7385e4a1d7)" d="M 0 0 
" style="fill:none;stroke:#424242;stroke-linecap:square;stroke-width:2.7;"/>
   </g>
   <g id="line2d_103">
    <path clip-path="url(#p7385e4a1d7)" d="M 0 0 
" style="fill:none;stroke:#424242;stroke-linecap:square;stroke-width:2.7;"/>
   </g>
   <g id="line2d_104">
    <path clip-path="url(#p7385e4a1d7)" d="M 0 0 
" style="fill:none;stroke:#424242;stroke-linecap:square;stroke-width:2.7;"/>
   </g>
   <g id="line2d_105">
    <path clip-path="url(#p7385e4a1d7)" d="M 0 0 
" style="fill:none;stroke:#424242;stroke-linecap:square;stroke-width:2.7;"/>
   </g>
   <g id="line2d_106">
    <path clip-path="url(#p7385e4a1d7)" d="M 0 0 
" style="fill:none;stroke:#424242;stroke-linecap:square;stroke-width:2.7;"/>
   </g>
   <g id="line2d_107">
    <path clip-path="url(#p7385e4a1d7)" d="M 0 0 
" style="fill:none;stroke:#424242;stroke-linecap:square;stroke-width:2.7;"/>
   </g>
   <g id="line2d_108">
    <path clip-path="url(#p7385e4a1d7)" d="M 0 0 
" style="fill:none;stroke:#424242;stroke-linecap:square;stroke-width:2.7;"/>
   </g>
   <g id="line2d_109">
    <path clip-path="url(#p7385e4a1d7)" d="M 0 0 
" style="fill:none;stroke:#424242;stroke-linecap:square;stroke-width:2.7;"/>
   </g>
   <g id="line2d_110">
    <path clip-path="url(#p7385e4a1d7)" d="M 0 0 
" style="fill:none;stroke:#424242;stroke-linecap:square;stroke-width:2.7;"/>
   </g>
   <g id="line2d_111">
    <path clip-path="url(#p7385e4a1d7)" d="M 0 0 
" style="fill:none;stroke:#424242;stroke-linecap:square;stroke-width:2.7;"/>
   </g>
   <g id="line2d_112">
    <path clip-path="url(#p7385e4a1d7)" d="M 0 0 
" style="fill:none;stroke:#424242;stroke-linecap:square;stroke-width:2.7;"/>
   </g>
   <g id="line2d_113">
    <path clip-path="url(#p7385e4a1d7)" d="M 0 0 
" style="fill:none;stroke:#424242;stroke-linecap:square;stroke-width:2.7;"/>
   </g>
   <g id="line2d_114">
    <path clip-path="url(#p7385e4a1d7)" d="M 0 0 
" style="fill:none;stroke:#424242;stroke-linecap:square;stroke-width:2.7;"/>
   </g>
   <g id="line2d_115">
    <path clip-path="url(#p7385e4a1d7)" d="M 0 0 
" style="fill:none;stroke:#424242;stroke-linecap:square;stroke-width:2.7;"/>
   </g>
   <g id="line2d_116">
    <path clip-path="url(#p7385e4a1d7)" d="M 0 0 
" style="fill:none;stroke:#424242;stroke-linecap:square;stroke-width:2.7;"/>
   </g>
   <g id="line2d_117">
    <path clip-path="url(#p7385e4a1d7)" d="M 0 0 
" style="fill:none;stroke:#424242;stroke-linecap:square;stroke-width:2.7;"/>
   </g>
   <g id="line2d_118">
    <path clip-path="url(#p7385e4a1d7)" d="M 0 0 
" style="fill:none;stroke:#424242;stroke-linecap:square;stroke-width:2.7;"/>
   </g>
   <g id="line2d_119">
    <path clip-path="url(#p7385e4a1d7)" d="M 0 0 
" style="fill:none;stroke:#424242;stroke-linecap:square;stroke-width:2.7;"/>
   </g>
   <g id="line2d_120">
    <path clip-path="url(#p7385e4a1d7)" d="M 0 0 
" style="fill:none;stroke:#424242;stroke-linecap:square;stroke-width:2.7;"/>
   </g>
   <g id="line2d_121">
    <path clip-path="url(#p7385e4a1d7)" d="M 0 0 
" style="fill:none;stroke:#424242;stroke-linecap:square;stroke-width:2.7;"/>
   </g>
   <g id="line2d_122">
    <path clip-path="url(#p7385e4a1d7)" d="M 0 0 
" style="fill:none;stroke:#424242;stroke-linecap:square;stroke-width:2.7;"/>
   </g>
   <g id="line2d_123">
    <path clip-path="url(#p7385e4a1d7)" d="M 0 0 
" style="fill:none;stroke:#424242;stroke-linecap:square;stroke-width:2.7;"/>
   </g>
   <g id="line2d_124">
    <path clip-path="url(#p7385e4a1d7)" d="M 0 0 
" style="fill:none;stroke:#424242;stroke-linecap:square;stroke-width:2.7;"/>
   </g>
   <g id="line2d_125">
    <path clip-path="url(#p7385e4a1d7)" d="M 0 0 
" style="fill:none;stroke:#424242;stroke-linecap:square;stroke-width:2.7;"/>
   </g>
   <g id="line2d_126">
    <path clip-path="url(#p7385e4a1d7)" d="M 0 0 
" style="fill:none;stroke:#424242;stroke-linecap:square;stroke-width:2.7;"/>
   </g>
   <g id="line2d_127">
    <path clip-path="url(#p7385e4a1d7)" d="M 0 0 
" style="fill:none;stroke:#424242;stroke-linecap:square;stroke-width:2.7;"/>
   </g>
   <g id="line2d_128">
    <path clip-path="url(#p7385e4a1d7)" d="M 0 0 
" style="fill:none;stroke:#424242;stroke-linecap:square;stroke-width:2.7;"/>
   </g>
   <g id="line2d_129">
    <path clip-path="url(#p7385e4a1d7)" d="M 0 0 
" style="fill:none;stroke:#424242;stroke-linecap:square;stroke-width:2.7;"/>
   </g>
   <g id="line2d_130">
    <path clip-path="url(#p7385e4a1d7)" d="M 0 0 
" style="fill:none;stroke:#424242;stroke-linecap:square;stroke-width:2.7;"/>
   </g>
   <g id="line2d_131">
    <path clip-path="url(#p7385e4a1d7)" d="M 0 0 
" style="fill:none;stroke:#424242;stroke-linecap:square;stroke-width:2.7;"/>
   </g>
   <g id="line2d_132">
    <path clip-path="url(#p7385e4a1d7)" d="M 0 0 
" style="fill:none;stroke:#424242;stroke-linecap:square;stroke-width:2.7;"/>
   </g>
   <g id="line2d_133">
    <path clip-path="url(#p7385e4a1d7)" d="M 0 0 
" style="fill:none;stroke:#424242;stroke-linecap:square;stroke-width:2.7;"/>
   </g>
   <g id="line2d_134">
    <path clip-path="url(#p7385e4a1d7)" d="M 0 0 
" style="fill:none;stroke:#424242;stroke-linecap:square;stroke-width:2.7;"/>
   </g>
   <g id="line2d_135">
    <path clip-path="url(#p7385e4a1d7)" d="M 0 0 
" style="fill:none;stroke:#424242;stroke-linecap:square;stroke-width:2.7;"/>
   </g>
   <g id="line2d_136">
    <path clip-path="url(#p7385e4a1d7)" d="M 0 0 
" style="fill:none;stroke:#424242;stroke-linecap:square;stroke-width:2.7;"/>
   </g>
   <g id="line2d_137">
    <path clip-path="url(#p7385e4a1d7)" d="M 0 0 
" style="fill:none;stroke:#424242;stroke-linecap:square;stroke-width:2.7;"/>
   </g>
   <g id="line2d_138">
    <path clip-path="url(#p7385e4a1d7)" d="M 0 0 
" style="fill:none;stroke:#424242;stroke-linecap:square;stroke-width:2.7;"/>
   </g>
   <g id="line2d_139">
    <path clip-path="url(#p7385e4a1d7)" d="M 0 0 
" style="fill:none;stroke:#424242;stroke-linecap:square;stroke-width:2.7;"/>
   </g>
   <g id="line2d_140">
    <path clip-path="url(#p7385e4a1d7)" d="M 0 0 
" style="fill:none;stroke:#424242;stroke-linecap:square;stroke-width:2.7;"/>
   </g>
   <g id="line2d_141">
    <path clip-path="url(#p7385e4a1d7)" d="M 0 0 
" style="fill:none;stroke:#424242;stroke-linecap:square;stroke-width:2.7;"/>
   </g>
   <g id="line2d_142">
    <path clip-path="url(#p7385e4a1d7)" d="M 0 0 
" style="fill:none;stroke:#424242;stroke-linecap:square;stroke-width:2.7;"/>
   </g>
   <g id="line2d_143">
    <path clip-path="url(#p7385e4a1d7)" d="M 0 0 
" style="fill:none;stroke:#424242;stroke-linecap:square;stroke-width:2.7;"/>
   </g>
   <g id="line2d_144">
    <path clip-path="url(#p7385e4a1d7)" d="M 0 0 
" style="fill:none;stroke:#424242;stroke-linecap:square;stroke-width:2.7;"/>
   </g>
   <g id="line2d_145">
    <path clip-path="url(#p7385e4a1d7)" d="M 0 0 
" style="fill:none;stroke:#424242;stroke-linecap:square;stroke-width:2.7;"/>
   </g>
   <g id="line2d_146">
    <path clip-path="url(#p7385e4a1d7)" d="M 0 0 
" style="fill:none;stroke:#424242;stroke-linecap:square;stroke-width:2.7;"/>
   </g>
   <g id="line2d_147">
    <path clip-path="url(#p7385e4a1d7)" d="M 0 0 
" style="fill:none;stroke:#424242;stroke-linecap:square;stroke-width:2.7;"/>
   </g>
   <g id="line2d_148">
    <path clip-path="url(#p7385e4a1d7)" d="M 0 0 
" style="fill:none;stroke:#424242;stroke-linecap:square;stroke-width:2.7;"/>
   </g>
   <g id="line2d_149">
    <path clip-path="url(#p7385e4a1d7)" d="M 0 0 
" style="fill:none;stroke:#424242;stroke-linecap:square;stroke-width:2.7;"/>
   </g>
   <g id="line2d_150">
    <path clip-path="url(#p7385e4a1d7)" d="M 0 0 
" style="fill:none;stroke:#424242;stroke-linecap:square;stroke-width:2.7;"/>
   </g>
   <g id="line2d_151">
    <path clip-path="url(#p7385e4a1d7)" d="M 0 0 
" style="fill:none;stroke:#424242;stroke-linecap:square;stroke-width:2.7;"/>
   </g>
   <g id="patch_67">
    <path d="M 197.1125 388.792 
L 197.1125 12.48 
" style="fill:none;stroke:#000000;stroke-linecap:square;stroke-linejoin:miter;stroke-width:0.8;"/>
   </g>
   <g id="patch_68">
    <path d="M 563.52 388.792 
L 563.52 12.48 
" style="fill:none;stroke:#000000;stroke-linecap:square;stroke-linejoin:miter;stroke-width:0.8;"/>
   </g>
   <g id="patch_69">
    <path d="M 197.1125 388.792 
L 563.52 388.792 
" style="fill:none;stroke:#000000;stroke-linecap:square;stroke-linejoin:miter;stroke-width:0.8;"/>
   </g>
   <g id="patch_70">
    <path d="M 197.1125 12.48 
L 563.52 12.48 
" style="fill:none;stroke:#000000;stroke-linecap:square;stroke-linejoin:miter;stroke-width:0.8;"/>
   </g>
   <g id="legend_1">
    <g id="patch_71">
     <path d="M 434.060625 79.1925 
L 556.52 79.1925 
Q 558.52 79.1925 558.52 77.1925 
L 558.52 19.48 
Q 558.52 17.48 556.52 17.48 
L 434.060625 17.48 
Q 432.060625 17.48 432.060625 19.48 
L 432.060625 77.1925 
Q 432.060625 79.1925 434.060625 79.1925 
z
" style="fill:#ffffff;opacity:0.8;stroke:#cccccc;stroke-linejoin:miter;"/>
    </g>
    <g id="patch_72">
     <path d="M 436.060625 29.078438 
L 456.060625 29.078438 
L 456.060625 22.078438 
L 436.060625 22.078438 
z
" style="fill:#3274a1;"/>
    </g>
    <g id="text_25">
     <!-- 32-Release -->
     <defs>
      <path d="M 4.890625 31.390625 
L 31.203125 31.390625 
L 31.203125 23.390625 
L 4.890625 23.390625 
z
" id="DejaVuSans-45"/>
     </defs>
     <g transform="translate(464.060625 29.078438)scale(0.1 -0.1)">
      <use xlink:href="#DejaVuSans-51"/>
      <use x="63.623047" xlink:href="#DejaVuSans-50"/>
      <use x="127.246094" xlink:href="#DejaVuSans-45"/>
      <use x="163.330078" xlink:href="#DejaVuSans-82"/>
      <use x="232.75" xlink:href="#DejaVuSans-101"/>
      <use x="294.273438" xlink:href="#DejaVuSans-108"/>
      <use x="322.056641" xlink:href="#DejaVuSans-101"/>
      <use x="383.580078" xlink:href="#DejaVuSans-97"/>
      <use x="444.859375" xlink:href="#DejaVuSans-115"/>
      <use x="496.958984" xlink:href="#DejaVuSans-101"/>
     </g>
    </g>
    <g id="patch_73">
     <path d="M 436.060625 43.756563 
L 456.060625 43.756563 
L 456.060625 36.756563 
L 436.060625 36.756563 
z
" style="fill:#e1812c;"/>
    </g>
    <g id="text_26">
     <!-- 32-Release-nodict -->
     <g transform="translate(464.060625 43.756563)scale(0.1 -0.1)">
      <use xlink:href="#DejaVuSans-51"/>
      <use x="63.623047" xlink:href="#DejaVuSans-50"/>
      <use x="127.246094" xlink:href="#DejaVuSans-45"/>
      <use x="163.330078" xlink:href="#DejaVuSans-82"/>
      <use x="232.75" xlink:href="#DejaVuSans-101"/>
      <use x="294.273438" xlink:href="#DejaVuSans-108"/>
      <use x="322.056641" xlink:href="#DejaVuSans-101"/>
      <use x="383.580078" xlink:href="#DejaVuSans-97"/>
      <use x="444.859375" xlink:href="#DejaVuSans-115"/>
      <use x="496.958984" xlink:href="#DejaVuSans-101"/>
      <use x="558.482422" xlink:href="#DejaVuSans-45"/>
      <use x="594.566406" xlink:href="#DejaVuSans-110"/>
      <use x="657.945312" xlink:href="#DejaVuSans-111"/>
      <use x="719.126953" xlink:href="#DejaVuSans-100"/>
      <use x="782.603516" xlink:href="#DejaVuSans-105"/>
      <use x="810.386719" xlink:href="#DejaVuSans-99"/>
      <use x="865.367188" xlink:href="#DejaVuSans-116"/>
     </g>
    </g>
    <g id="patch_74">
     <path d="M 436.060625 58.434687 
L 456.060625 58.434687 
L 456.060625 51.434687 
L 436.060625 51.434687 
z
" style="fill:#3a923a;"/>
    </g>
    <g id="text_27">
     <!-- 64-Release -->
     <defs>
      <path d="M 33.015625 40.375 
Q 26.375 40.375 22.484375 35.828125 
Q 18.609375 31.296875 18.609375 23.390625 
Q 18.609375 15.53125 22.484375 10.953125 
Q 26.375 6.390625 33.015625 6.390625 
Q 39.65625 6.390625 43.53125 10.953125 
Q 47.40625 15.53125 47.40625 23.390625 
Q 47.40625 31.296875 43.53125 35.828125 
Q 39.65625 40.375 33.015625 40.375 
z
M 52.59375 71.296875 
L 52.59375 62.3125 
Q 48.875 64.0625 45.09375 64.984375 
Q 41.3125 65.921875 37.59375 65.921875 
Q 27.828125 65.921875 22.671875 59.328125 
Q 17.53125 52.734375 16.796875 39.40625 
Q 19.671875 43.65625 24.015625 45.921875 
Q 28.375 48.1875 33.59375 48.1875 
Q 44.578125 48.1875 50.953125 41.515625 
Q 57.328125 34.859375 57.328125 23.390625 
Q 57.328125 12.15625 50.6875 5.359375 
Q 44.046875 -1.421875 33.015625 -1.421875 
Q 20.359375 -1.421875 13.671875 8.265625 
Q 6.984375 17.96875 6.984375 36.375 
Q 6.984375 53.65625 15.1875 63.9375 
Q 23.390625 74.21875 37.203125 74.21875 
Q 40.921875 74.21875 44.703125 73.484375 
Q 48.484375 72.75 52.59375 71.296875 
z
" id="DejaVuSans-54"/>
     </defs>
     <g transform="translate(464.060625 58.434687)scale(0.1 -0.1)">
      <use xlink:href="#DejaVuSans-54"/>
      <use x="63.623047" xlink:href="#DejaVuSans-52"/>
      <use x="127.246094" xlink:href="#DejaVuSans-45"/>
      <use x="163.330078" xlink:href="#DejaVuSans-82"/>
      <use x="232.75" xlink:href="#DejaVuSans-101"/>
      <use x="294.273438" xlink:href="#DejaVuSans-108"/>
      <use x="322.056641" xlink:href="#DejaVuSans-101"/>
      <use x="383.580078" xlink:href="#DejaVuSans-97"/>
      <use x="444.859375" xlink:href="#DejaVuSans-115"/>
      <use x="496.958984" xlink:href="#DejaVuSans-101"/>
     </g>
    </g>
    <g id="patch_75">
     <path d="M 436.060625 73.112813 
L 456.060625 73.112813 
L 456.060625 66.112813 
L 436.060625 66.112813 
z
" style="fill:#c03d3e;"/>
    </g>
    <g id="text_28">
     <!-- 64-Release-nodict -->
     <g transform="translate(464.060625 73.112813)scale(0.1 -0.1)">
      <use xlink:href="#DejaVuSans-54"/>
      <use x="63.623047" xlink:href="#DejaVuSans-52"/>
      <use x="127.246094" xlink:href="#DejaVuSans-45"/>
      <use x="163.330078" xlink:href="#DejaVuSans-82"/>
      <use x="232.75" xlink:href="#DejaVuSans-101"/>
      <use x="294.273438" xlink:href="#DejaVuSans-108"/>
      <use x="322.056641" xlink:href="#DejaVuSans-101"/>
      <use x="383.580078" xlink:href="#DejaVuSans-97"/>
      <use x="444.859375" xlink:href="#DejaVuSans-115"/>
      <use x="496.958984" xlink:href="#DejaVuSans-101"/>
      <use x="558.482422" xlink:href="#DejaVuSans-45"/>
      <use x="594.566406" xlink:href="#DejaVuSans-110"/>
      <use x="657.945312" xlink:href="#DejaVuSans-111"/>
      <use x="719.126953" xlink:href="#DejaVuSans-100"/>
      <use x="782.603516" xlink:href="#DejaVuSans-105"/>
      <use x="810.386719" xlink:href="#DejaVuSans-99"/>
      <use x="865.367188" xlink:href="#DejaVuSans-116"/>
     </g>
    </g>
   </g>
  </g>
 </g>
 <defs>
  <clipPath id="p7385e4a1d7">
   <rect height="376.312" width="366.4075" x="197.1125" y="12.48"/>
  </clipPath>
 </defs>
</svg>
