<?xml version="1.0" encoding="utf-8" standalone="no"?>
<!DOCTYPE svg PUBLIC "-//W3C//DTD SVG 1.1//EN"
  "http://www.w3.org/Graphics/SVG/1.1/DTD/svg11.dtd">
<!-- Created with matplotlib (https://matplotlib.org/) -->
<svg height="288pt" version="1.1" viewBox="0 0 576 288" width="576pt" xmlns="http://www.w3.org/2000/svg" xmlns:xlink="http://www.w3.org/1999/xlink">
 <defs>
  <style type="text/css">
*{stroke-linecap:butt;stroke-linejoin:round;}
  </style>
 </defs>
 <g id="figure_1">
  <g id="patch_1">
   <path d="M 0 288 
L 576 288 
L 576 0 
L 0 0 
z
" style="fill:#ffffff;"/>
  </g>
  <g id="axes_1">
   <g id="patch_2">
    <path d="M 56.84 238.328 
L 563.52 238.328 
L 563.52 12.48 
L 56.84 12.48 
z
" style="fill:#ffffff;"/>
   </g>
   <g id="matplotlib.axis_1">
    <g id="xtick_1">
     <g id="line2d_1">
      <path clip-path="url(#pb6568ada9f)" d="M 81.083062 238.328 
L 81.083062 12.48 
" style="fill:none;stroke:#b0b0b0;stroke-linecap:square;stroke-opacity:0.5;stroke-width:0.8;"/>
     </g>
     <g id="line2d_2">
      <defs>
       <path d="M 0 0 
L 0 3.5 
" id="m8f5dab675d" style="stroke:#000000;stroke-width:0.8;"/>
      </defs>
      <g>
       <use style="stroke:#000000;stroke-width:0.8;" x="81.083062" xlink:href="#m8f5dab675d" y="238.328"/>
      </g>
     </g>
     <g id="text_1">
      <!-- $\longrightarrow$ -->
      <defs>
       <path d="M 138.484375 33.546875 
L 138.484375 29.15625 
L 119.28125 9.96875 
L 113.421875 15.828125 
L 124.8125 27.203125 
L 5.71875 27.203125 
L 5.71875 35.5 
L 124.8125 35.5 
L 113.421875 46.875 
L 119.28125 52.734375 
z
" id="DejaVuSans-10230"/>
      </defs>
      <g transform="translate(81.083062 252.926437)scale(0.1 -0.1)">
       <use transform="translate(19.482422 0.265625)" xlink:href="#DejaVuSans-10230"/>
      </g>
      <!-- Load Libs -->
      <defs>
       <path d="M 9.8125 72.90625 
L 19.671875 72.90625 
L 19.671875 8.296875 
L 55.171875 8.296875 
L 55.171875 0 
L 9.8125 0 
z
" id="DejaVuSans-76"/>
       <path d="M 30.609375 48.390625 
Q 23.390625 48.390625 19.1875 42.75 
Q 14.984375 37.109375 14.984375 27.296875 
Q 14.984375 17.484375 19.15625 11.84375 
Q 23.34375 6.203125 30.609375 6.203125 
Q 37.796875 6.203125 41.984375 11.859375 
Q 46.1875 17.53125 46.1875 27.296875 
Q 46.1875 37.015625 41.984375 42.703125 
Q 37.796875 48.390625 30.609375 48.390625 
z
M 30.609375 56 
Q 42.328125 56 49.015625 48.375 
Q 55.71875 40.765625 55.71875 27.296875 
Q 55.71875 13.875 49.015625 6.21875 
Q 42.328125 -1.421875 30.609375 -1.421875 
Q 18.84375 -1.421875 12.171875 6.21875 
Q 5.515625 13.875 5.515625 27.296875 
Q 5.515625 40.765625 12.171875 48.375 
Q 18.84375 56 30.609375 56 
z
" id="DejaVuSans-111"/>
       <path d="M 34.28125 27.484375 
Q 23.390625 27.484375 19.1875 25 
Q 14.984375 22.515625 14.984375 16.5 
Q 14.984375 11.71875 18.140625 8.90625 
Q 21.296875 6.109375 26.703125 6.109375 
Q 34.1875 6.109375 38.703125 11.40625 
Q 43.21875 16.703125 43.21875 25.484375 
L 43.21875 27.484375 
z
M 52.203125 31.203125 
L 52.203125 0 
L 43.21875 0 
L 43.21875 8.296875 
Q 40.140625 3.328125 35.546875 0.953125 
Q 30.953125 -1.421875 24.3125 -1.421875 
Q 15.921875 -1.421875 10.953125 3.296875 
Q 6 8.015625 6 15.921875 
Q 6 25.140625 12.171875 29.828125 
Q 18.359375 34.515625 30.609375 34.515625 
L 43.21875 34.515625 
L 43.21875 35.40625 
Q 43.21875 41.609375 39.140625 45 
Q 35.0625 48.390625 27.6875 48.390625 
Q 23 48.390625 18.546875 47.265625 
Q 14.109375 46.140625 10.015625 43.890625 
L 10.015625 52.203125 
Q 14.9375 54.109375 19.578125 55.046875 
Q 24.21875 56 28.609375 56 
Q 40.484375 56 46.34375 49.84375 
Q 52.203125 43.703125 52.203125 31.203125 
z
" id="DejaVuSans-97"/>
       <path d="M 45.40625 46.390625 
L 45.40625 75.984375 
L 54.390625 75.984375 
L 54.390625 0 
L 45.40625 0 
L 45.40625 8.203125 
Q 42.578125 3.328125 38.25 0.953125 
Q 33.9375 -1.421875 27.875 -1.421875 
Q 17.96875 -1.421875 11.734375 6.484375 
Q 5.515625 14.40625 5.515625 27.296875 
Q 5.515625 40.1875 11.734375 48.09375 
Q 17.96875 56 27.875 56 
Q 33.9375 56 38.25 53.625 
Q 42.578125 51.265625 45.40625 46.390625 
z
M 14.796875 27.296875 
Q 14.796875 17.390625 18.875 11.75 
Q 22.953125 6.109375 30.078125 6.109375 
Q 37.203125 6.109375 41.296875 11.75 
Q 45.40625 17.390625 45.40625 27.296875 
Q 45.40625 37.203125 41.296875 42.84375 
Q 37.203125 48.484375 30.078125 48.484375 
Q 22.953125 48.484375 18.875 42.84375 
Q 14.796875 37.203125 14.796875 27.296875 
z
" id="DejaVuSans-100"/>
       <path id="DejaVuSans-32"/>
       <path d="M 9.421875 54.6875 
L 18.40625 54.6875 
L 18.40625 0 
L 9.421875 0 
z
M 9.421875 75.984375 
L 18.40625 75.984375 
L 18.40625 64.59375 
L 9.421875 64.59375 
z
" id="DejaVuSans-105"/>
       <path d="M 48.6875 27.296875 
Q 48.6875 37.203125 44.609375 42.84375 
Q 40.53125 48.484375 33.40625 48.484375 
Q 26.265625 48.484375 22.1875 42.84375 
Q 18.109375 37.203125 18.109375 27.296875 
Q 18.109375 17.390625 22.1875 11.75 
Q 26.265625 6.109375 33.40625 6.109375 
Q 40.53125 6.109375 44.609375 11.75 
Q 48.6875 17.390625 48.6875 27.296875 
z
M 18.109375 46.390625 
Q 20.953125 51.265625 25.265625 53.625 
Q 29.59375 56 35.59375 56 
Q 45.5625 56 51.78125 48.09375 
Q 58.015625 40.1875 58.015625 27.296875 
Q 58.015625 14.40625 51.78125 6.484375 
Q 45.5625 -1.421875 35.59375 -1.421875 
Q 29.59375 -1.421875 25.265625 0.953125 
Q 20.953125 3.328125 18.109375 8.203125 
L 18.109375 0 
L 9.078125 0 
L 9.078125 75.984375 
L 18.109375 75.984375 
z
" id="DejaVuSans-98"/>
       <path d="M 44.28125 53.078125 
L 44.28125 44.578125 
Q 40.484375 46.53125 36.375 47.5 
Q 32.28125 48.484375 27.875 48.484375 
Q 21.1875 48.484375 17.84375 46.4375 
Q 14.5 44.390625 14.5 40.28125 
Q 14.5 37.15625 16.890625 35.375 
Q 19.28125 33.59375 26.515625 31.984375 
L 29.59375 31.296875 
Q 39.15625 29.25 43.1875 25.515625 
Q 47.21875 21.78125 47.21875 15.09375 
Q 47.21875 7.46875 41.1875 3.015625 
Q 35.15625 -1.421875 24.609375 -1.421875 
Q 20.21875 -1.421875 15.453125 -0.5625 
Q 10.6875 0.296875 5.421875 2 
L 5.421875 11.28125 
Q 10.40625 8.6875 15.234375 7.390625 
Q 20.0625 6.109375 24.8125 6.109375 
Q 31.15625 6.109375 34.5625 8.28125 
Q 37.984375 10.453125 37.984375 14.40625 
Q 37.984375 18.0625 35.515625 20.015625 
Q 33.0625 21.96875 24.703125 23.78125 
L 21.578125 24.515625 
Q 13.234375 26.265625 9.515625 29.90625 
Q 5.8125 33.546875 5.8125 39.890625 
Q 5.8125 47.609375 11.28125 51.796875 
Q 16.75 56 26.8125 56 
Q 31.78125 56 36.171875 55.265625 
Q 40.578125 54.546875 44.28125 53.078125 
z
" id="DejaVuSans-115"/>
      </defs>
      <g transform="translate(81.083062 264.12425)scale(0.1 -0.1)">
       <use xlink:href="#DejaVuSans-76"/>
       <use x="55.697266" xlink:href="#DejaVuSans-111"/>
       <use x="116.878906" xlink:href="#DejaVuSans-97"/>
       <use x="178.158203" xlink:href="#DejaVuSans-100"/>
       <use x="241.634766" xlink:href="#DejaVuSans-32"/>
       <use x="273.421875" xlink:href="#DejaVuSans-76"/>
       <use x="329.134766" xlink:href="#DejaVuSans-105"/>
       <use x="356.917969" xlink:href="#DejaVuSans-98"/>
       <use x="420.394531" xlink:href="#DejaVuSans-115"/>
      </g>
     </g>
    </g>
    <g id="xtick_2">
     <g id="line2d_3">
      <path clip-path="url(#pb6568ada9f)" d="M 176.843158 238.328 
L 176.843158 12.48 
" style="fill:none;stroke:#b0b0b0;stroke-linecap:square;stroke-opacity:0.5;stroke-width:0.8;"/>
     </g>
     <g id="line2d_4">
      <g>
       <use style="stroke:#000000;stroke-width:0.8;" x="176.843158" xlink:href="#m8f5dab675d" y="238.328"/>
      </g>
     </g>
     <g id="text_2">
      <!-- $\longrightarrow$ -->
      <g transform="translate(176.843158 252.926437)scale(0.1 -0.1)">
       <use transform="translate(19.482422 0.265625)" xlink:href="#DejaVuSans-10230"/>
      </g>
      <!-- Constr. -->
      <defs>
       <path d="M 64.40625 67.28125 
L 64.40625 56.890625 
Q 59.421875 61.53125 53.78125 63.8125 
Q 48.140625 66.109375 41.796875 66.109375 
Q 29.296875 66.109375 22.65625 58.46875 
Q 16.015625 50.828125 16.015625 36.375 
Q 16.015625 21.96875 22.65625 14.328125 
Q 29.296875 6.6875 41.796875 6.6875 
Q 48.140625 6.6875 53.78125 8.984375 
Q 59.421875 11.28125 64.40625 15.921875 
L 64.40625 5.609375 
Q 59.234375 2.09375 53.4375 0.328125 
Q 47.65625 -1.421875 41.21875 -1.421875 
Q 24.65625 -1.421875 15.125 8.703125 
Q 5.609375 18.84375 5.609375 36.375 
Q 5.609375 53.953125 15.125 64.078125 
Q 24.65625 74.21875 41.21875 74.21875 
Q 47.75 74.21875 53.53125 72.484375 
Q 59.328125 70.75 64.40625 67.28125 
z
" id="DejaVuSans-67"/>
       <path d="M 54.890625 33.015625 
L 54.890625 0 
L 45.90625 0 
L 45.90625 32.71875 
Q 45.90625 40.484375 42.875 44.328125 
Q 39.84375 48.1875 33.796875 48.1875 
Q 26.515625 48.1875 22.3125 43.546875 
Q 18.109375 38.921875 18.109375 30.90625 
L 18.109375 0 
L 9.078125 0 
L 9.078125 54.6875 
L 18.109375 54.6875 
L 18.109375 46.1875 
Q 21.34375 51.125 25.703125 53.5625 
Q 30.078125 56 35.796875 56 
Q 45.21875 56 50.046875 50.171875 
Q 54.890625 44.34375 54.890625 33.015625 
z
" id="DejaVuSans-110"/>
       <path d="M 18.3125 70.21875 
L 18.3125 54.6875 
L 36.8125 54.6875 
L 36.8125 47.703125 
L 18.3125 47.703125 
L 18.3125 18.015625 
Q 18.3125 11.328125 20.140625 9.421875 
Q 21.96875 7.515625 27.59375 7.515625 
L 36.8125 7.515625 
L 36.8125 0 
L 27.59375 0 
Q 17.1875 0 13.234375 3.875 
Q 9.28125 7.765625 9.28125 18.015625 
L 9.28125 47.703125 
L 2.6875 47.703125 
L 2.6875 54.6875 
L 9.28125 54.6875 
L 9.28125 70.21875 
z
" id="DejaVuSans-116"/>
       <path d="M 41.109375 46.296875 
Q 39.59375 47.171875 37.8125 47.578125 
Q 36.03125 48 33.890625 48 
Q 26.265625 48 22.1875 43.046875 
Q 18.109375 38.09375 18.109375 28.8125 
L 18.109375 0 
L 9.078125 0 
L 9.078125 54.6875 
L 18.109375 54.6875 
L 18.109375 46.1875 
Q 20.953125 51.171875 25.484375 53.578125 
Q 30.03125 56 36.53125 56 
Q 37.453125 56 38.578125 55.875 
Q 39.703125 55.765625 41.0625 55.515625 
z
" id="DejaVuSans-114"/>
       <path d="M 10.6875 12.40625 
L 21 12.40625 
L 21 0 
L 10.6875 0 
z
" id="DejaVuSans-46"/>
      </defs>
      <g transform="translate(176.843158 264.12425)scale(0.1 -0.1)">
       <use xlink:href="#DejaVuSans-67"/>
       <use x="69.824219" xlink:href="#DejaVuSans-111"/>
       <use x="131.005859" xlink:href="#DejaVuSans-110"/>
       <use x="194.384766" xlink:href="#DejaVuSans-115"/>
       <use x="246.484375" xlink:href="#DejaVuSans-116"/>
       <use x="285.693359" xlink:href="#DejaVuSans-114"/>
       <use x="326.666016" xlink:href="#DejaVuSans-46"/>
      </g>
     </g>
    </g>
    <g id="xtick_3">
     <g id="line2d_5">
      <path clip-path="url(#pb6568ada9f)" d="M 225.329282 238.328 
L 225.329282 12.48 
" style="fill:none;stroke:#b0b0b0;stroke-linecap:square;stroke-opacity:0.5;stroke-width:0.8;"/>
     </g>
     <g id="line2d_6">
      <g>
       <use style="stroke:#000000;stroke-width:0.8;" x="225.329282" xlink:href="#m8f5dab675d" y="238.328"/>
      </g>
     </g>
     <g id="text_3">
      <!-- $\longrightarrow$ -->
      <g transform="translate(225.329282 252.926437)scale(0.1 -0.1)">
       <use transform="translate(19.482422 0.265625)" xlink:href="#DejaVuSans-10230"/>
      </g>
      <!-- Init() -->
      <defs>
       <path d="M 9.8125 72.90625 
L 19.671875 72.90625 
L 19.671875 0 
L 9.8125 0 
z
" id="DejaVuSans-73"/>
       <path d="M 31 75.875 
Q 24.46875 64.65625 21.28125 53.65625 
Q 18.109375 42.671875 18.109375 31.390625 
Q 18.109375 20.125 21.3125 9.0625 
Q 24.515625 -2 31 -13.1875 
L 23.1875 -13.1875 
Q 15.875 -1.703125 12.234375 9.375 
Q 8.59375 20.453125 8.59375 31.390625 
Q 8.59375 42.28125 12.203125 53.3125 
Q 15.828125 64.359375 23.1875 75.875 
z
" id="DejaVuSans-40"/>
       <path d="M 8.015625 75.875 
L 15.828125 75.875 
Q 23.140625 64.359375 26.78125 53.3125 
Q 30.421875 42.28125 30.421875 31.390625 
Q 30.421875 20.453125 26.78125 9.375 
Q 23.140625 -1.703125 15.828125 -13.1875 
L 8.015625 -13.1875 
Q 14.5 -2 17.703125 9.0625 
Q 20.90625 20.125 20.90625 31.390625 
Q 20.90625 42.671875 17.703125 53.65625 
Q 14.5 64.65625 8.015625 75.875 
z
" id="DejaVuSans-41"/>
      </defs>
      <g transform="translate(225.329282 264.12425)scale(0.1 -0.1)">
       <use xlink:href="#DejaVuSans-73"/>
       <use x="29.492188" xlink:href="#DejaVuSans-110"/>
       <use x="92.871094" xlink:href="#DejaVuSans-105"/>
       <use x="120.654297" xlink:href="#DejaVuSans-116"/>
       <use x="159.863281" xlink:href="#DejaVuSans-40"/>
       <use x="198.876953" xlink:href="#DejaVuSans-41"/>
      </g>
     </g>
    </g>
    <g id="xtick_4">
     <g id="line2d_7">
      <path clip-path="url(#pb6568ada9f)" d="M 272.603254 238.328 
L 272.603254 12.48 
" style="fill:none;stroke:#b0b0b0;stroke-linecap:square;stroke-opacity:0.5;stroke-width:0.8;"/>
     </g>
     <g id="line2d_8">
      <g>
       <use style="stroke:#000000;stroke-width:0.8;" x="272.603254" xlink:href="#m8f5dab675d" y="238.328"/>
      </g>
     </g>
     <g id="text_4">
      <!-- $\longrightarrow$ -->
      <g transform="translate(272.603254 252.926437)scale(0.1 -0.1)">
       <use transform="translate(19.482422 0.265625)" xlink:href="#DejaVuSans-10230"/>
      </g>
      <!-- Clear() -->
      <defs>
       <path d="M 9.421875 75.984375 
L 18.40625 75.984375 
L 18.40625 0 
L 9.421875 0 
z
" id="DejaVuSans-108"/>
       <path d="M 56.203125 29.59375 
L 56.203125 25.203125 
L 14.890625 25.203125 
Q 15.484375 15.921875 20.484375 11.0625 
Q 25.484375 6.203125 34.421875 6.203125 
Q 39.59375 6.203125 44.453125 7.46875 
Q 49.3125 8.734375 54.109375 11.28125 
L 54.109375 2.78125 
Q 49.265625 0.734375 44.1875 -0.34375 
Q 39.109375 -1.421875 33.890625 -1.421875 
Q 20.796875 -1.421875 13.15625 6.1875 
Q 5.515625 13.8125 5.515625 26.8125 
Q 5.515625 40.234375 12.765625 48.109375 
Q 20.015625 56 32.328125 56 
Q 43.359375 56 49.78125 48.890625 
Q 56.203125 41.796875 56.203125 29.59375 
z
M 47.21875 32.234375 
Q 47.125 39.59375 43.09375 43.984375 
Q 39.0625 48.390625 32.421875 48.390625 
Q 24.90625 48.390625 20.390625 44.140625 
Q 15.875 39.890625 15.1875 32.171875 
z
" id="DejaVuSans-101"/>
      </defs>
      <g transform="translate(272.603254 264.12425)scale(0.1 -0.1)">
       <use xlink:href="#DejaVuSans-67"/>
       <use x="69.824219" xlink:href="#DejaVuSans-108"/>
       <use x="97.607422" xlink:href="#DejaVuSans-101"/>
       <use x="159.130859" xlink:href="#DejaVuSans-97"/>
       <use x="220.410156" xlink:href="#DejaVuSans-114"/>
       <use x="261.523438" xlink:href="#DejaVuSans-40"/>
       <use x="300.537109" xlink:href="#DejaVuSans-41"/>
      </g>
      <!-- #1 -->
      <defs>
       <path d="M 51.125 44 
L 36.921875 44 
L 32.8125 27.6875 
L 47.125 27.6875 
z
M 43.796875 71.78125 
L 38.71875 51.515625 
L 52.984375 51.515625 
L 58.109375 71.78125 
L 65.921875 71.78125 
L 60.890625 51.515625 
L 76.125 51.515625 
L 76.125 44 
L 58.984375 44 
L 54.984375 27.6875 
L 70.515625 27.6875 
L 70.515625 20.21875 
L 53.078125 20.21875 
L 48 0 
L 40.1875 0 
L 45.21875 20.21875 
L 30.90625 20.21875 
L 25.875 0 
L 18.015625 0 
L 23.09375 20.21875 
L 7.71875 20.21875 
L 7.71875 27.6875 
L 24.90625 27.6875 
L 29 44 
L 13.28125 44 
L 13.28125 51.515625 
L 30.90625 51.515625 
L 35.890625 71.78125 
z
" id="DejaVuSans-35"/>
       <path d="M 12.40625 8.296875 
L 28.515625 8.296875 
L 28.515625 63.921875 
L 10.984375 60.40625 
L 10.984375 69.390625 
L 28.421875 72.90625 
L 38.28125 72.90625 
L 38.28125 8.296875 
L 54.390625 8.296875 
L 54.390625 0 
L 12.40625 0 
z
" id="DejaVuSans-49"/>
      </defs>
      <g transform="translate(272.603254 275.322063)scale(0.1 -0.1)">
       <use xlink:href="#DejaVuSans-35"/>
       <use x="83.789062" xlink:href="#DejaVuSans-49"/>
      </g>
     </g>
    </g>
    <g id="xtick_5">
     <g id="line2d_9">
      <path clip-path="url(#pb6568ada9f)" d="M 313.816459 238.328 
L 313.816459 12.48 
" style="fill:none;stroke:#b0b0b0;stroke-linecap:square;stroke-opacity:0.5;stroke-width:0.8;"/>
     </g>
     <g id="line2d_10">
      <g>
       <use style="stroke:#000000;stroke-width:0.8;" x="313.816459" xlink:href="#m8f5dab675d" y="238.328"/>
      </g>
     </g>
     <g id="text_5">
      <!-- $\longrightarrow$ -->
      <g transform="translate(313.816459 252.926437)scale(0.1 -0.1)">
       <use transform="translate(19.482422 0.265625)" xlink:href="#DejaVuSans-10230"/>
      </g>
      <!-- Make() -->
      <defs>
       <path d="M 9.8125 72.90625 
L 24.515625 72.90625 
L 43.109375 23.296875 
L 61.8125 72.90625 
L 76.515625 72.90625 
L 76.515625 0 
L 66.890625 0 
L 66.890625 64.015625 
L 48.09375 14.015625 
L 38.1875 14.015625 
L 19.390625 64.015625 
L 19.390625 0 
L 9.8125 0 
z
" id="DejaVuSans-77"/>
       <path d="M 9.078125 75.984375 
L 18.109375 75.984375 
L 18.109375 31.109375 
L 44.921875 54.6875 
L 56.390625 54.6875 
L 27.390625 29.109375 
L 57.625 0 
L 45.90625 0 
L 18.109375 26.703125 
L 18.109375 0 
L 9.078125 0 
z
" id="DejaVuSans-107"/>
      </defs>
      <g transform="translate(313.816459 264.12425)scale(0.1 -0.1)">
       <use xlink:href="#DejaVuSans-77"/>
       <use x="86.279297" xlink:href="#DejaVuSans-97"/>
       <use x="147.558594" xlink:href="#DejaVuSans-107"/>
       <use x="205.421875" xlink:href="#DejaVuSans-101"/>
       <use x="266.945312" xlink:href="#DejaVuSans-40"/>
       <use x="305.958984" xlink:href="#DejaVuSans-41"/>
      </g>
     </g>
    </g>
    <g id="xtick_6">
     <g id="line2d_11">
      <path clip-path="url(#pb6568ada9f)" d="M 363.514737 238.328 
L 363.514737 12.48 
" style="fill:none;stroke:#b0b0b0;stroke-linecap:square;stroke-opacity:0.5;stroke-width:0.8;"/>
     </g>
     <g id="line2d_12">
      <g>
       <use style="stroke:#000000;stroke-width:0.8;" x="363.514737" xlink:href="#m8f5dab675d" y="238.328"/>
      </g>
     </g>
     <g id="text_6">
      <!-- $\longrightarrow$ -->
      <g transform="translate(363.514737 252.926437)scale(0.1 -0.1)">
       <use transform="translate(19.482422 0.265625)" xlink:href="#DejaVuSans-10230"/>
      </g>
      <!-- Clear() -->
      <g transform="translate(363.514737 264.12425)scale(0.1 -0.1)">
       <use xlink:href="#DejaVuSans-67"/>
       <use x="69.824219" xlink:href="#DejaVuSans-108"/>
       <use x="97.607422" xlink:href="#DejaVuSans-101"/>
       <use x="159.130859" xlink:href="#DejaVuSans-97"/>
       <use x="220.410156" xlink:href="#DejaVuSans-114"/>
       <use x="261.523438" xlink:href="#DejaVuSans-40"/>
       <use x="300.537109" xlink:href="#DejaVuSans-41"/>
      </g>
      <!-- #2 -->
      <defs>
       <path d="M 19.1875 8.296875 
L 53.609375 8.296875 
L 53.609375 0 
L 7.328125 0 
L 7.328125 8.296875 
Q 12.9375 14.109375 22.625 23.890625 
Q 32.328125 33.6875 34.8125 36.53125 
Q 39.546875 41.84375 41.421875 45.53125 
Q 43.3125 49.21875 43.3125 52.78125 
Q 43.3125 58.59375 39.234375 62.25 
Q 35.15625 65.921875 28.609375 65.921875 
Q 23.96875 65.921875 18.8125 64.3125 
Q 13.671875 62.703125 7.8125 59.421875 
L 7.8125 69.390625 
Q 13.765625 71.78125 18.9375 73 
Q 24.125 74.21875 28.421875 74.21875 
Q 39.75 74.21875 46.484375 68.546875 
Q 53.21875 62.890625 53.21875 53.421875 
Q 53.21875 48.921875 51.53125 44.890625 
Q 49.859375 40.875 45.40625 35.40625 
Q 44.1875 33.984375 37.640625 27.21875 
Q 31.109375 20.453125 19.1875 8.296875 
z
" id="DejaVuSans-50"/>
      </defs>
      <g transform="translate(363.514737 275.322063)scale(0.1 -0.1)">
       <use xlink:href="#DejaVuSans-35"/>
       <use x="83.789062" xlink:href="#DejaVuSans-50"/>
      </g>
     </g>
    </g>
    <g id="xtick_7">
     <g id="line2d_13">
      <path clip-path="url(#pb6568ada9f)" d="M 403.515789 238.328 
L 403.515789 12.48 
" style="fill:none;stroke:#b0b0b0;stroke-linecap:square;stroke-opacity:0.5;stroke-width:0.8;"/>
     </g>
     <g id="line2d_14">
      <g>
       <use style="stroke:#000000;stroke-width:0.8;" x="403.515789" xlink:href="#m8f5dab675d" y="238.328"/>
      </g>
     </g>
     <g id="text_7">
      <!-- $\longrightarrow$ -->
      <g transform="translate(403.515789 252.926437)scale(0.1 -0.1)">
       <use transform="translate(19.482422 0.265625)" xlink:href="#DejaVuSans-10230"/>
      </g>
      <!-- Make() -->
      <g transform="translate(403.515789 264.12425)scale(0.1 -0.1)">
       <use xlink:href="#DejaVuSans-77"/>
       <use x="86.279297" xlink:href="#DejaVuSans-97"/>
       <use x="147.558594" xlink:href="#DejaVuSans-107"/>
       <use x="205.421875" xlink:href="#DejaVuSans-101"/>
       <use x="266.945312" xlink:href="#DejaVuSans-40"/>
       <use x="305.958984" xlink:href="#DejaVuSans-41"/>
      </g>
     </g>
    </g>
    <g id="xtick_8">
     <g id="line2d_15">
      <path clip-path="url(#pb6568ada9f)" d="M 453.214067 238.328 
L 453.214067 12.48 
" style="fill:none;stroke:#b0b0b0;stroke-linecap:square;stroke-opacity:0.5;stroke-width:0.8;"/>
     </g>
     <g id="line2d_16">
      <g>
       <use style="stroke:#000000;stroke-width:0.8;" x="453.214067" xlink:href="#m8f5dab675d" y="238.328"/>
      </g>
     </g>
     <g id="text_8">
      <!-- $\longrightarrow$ -->
      <g transform="translate(453.214067 252.926437)scale(0.1 -0.1)">
       <use transform="translate(19.482422 0.265625)" xlink:href="#DejaVuSans-10230"/>
      </g>
      <!-- Clear() -->
      <g transform="translate(453.214067 264.12425)scale(0.1 -0.1)">
       <use xlink:href="#DejaVuSans-67"/>
       <use x="69.824219" xlink:href="#DejaVuSans-108"/>
       <use x="97.607422" xlink:href="#DejaVuSans-101"/>
       <use x="159.130859" xlink:href="#DejaVuSans-97"/>
       <use x="220.410156" xlink:href="#DejaVuSans-114"/>
       <use x="261.523438" xlink:href="#DejaVuSans-40"/>
       <use x="300.537109" xlink:href="#DejaVuSans-41"/>
      </g>
      <!-- #3 -->
      <defs>
       <path d="M 40.578125 39.3125 
Q 47.65625 37.796875 51.625 33 
Q 55.609375 28.21875 55.609375 21.1875 
Q 55.609375 10.40625 48.1875 4.484375 
Q 40.765625 -1.421875 27.09375 -1.421875 
Q 22.515625 -1.421875 17.65625 -0.515625 
Q 12.796875 0.390625 7.625 2.203125 
L 7.625 11.71875 
Q 11.71875 9.328125 16.59375 8.109375 
Q 21.484375 6.890625 26.8125 6.890625 
Q 36.078125 6.890625 40.9375 10.546875 
Q 45.796875 14.203125 45.796875 21.1875 
Q 45.796875 27.640625 41.28125 31.265625 
Q 36.765625 34.90625 28.71875 34.90625 
L 20.21875 34.90625 
L 20.21875 43.015625 
L 29.109375 43.015625 
Q 36.375 43.015625 40.234375 45.921875 
Q 44.09375 48.828125 44.09375 54.296875 
Q 44.09375 59.90625 40.109375 62.90625 
Q 36.140625 65.921875 28.71875 65.921875 
Q 24.65625 65.921875 20.015625 65.03125 
Q 15.375 64.15625 9.8125 62.3125 
L 9.8125 71.09375 
Q 15.4375 72.65625 20.34375 73.4375 
Q 25.25 74.21875 29.59375 74.21875 
Q 40.828125 74.21875 47.359375 69.109375 
Q 53.90625 64.015625 53.90625 55.328125 
Q 53.90625 49.265625 50.4375 45.09375 
Q 46.96875 40.921875 40.578125 39.3125 
z
" id="DejaVuSans-51"/>
      </defs>
      <g transform="translate(453.214067 275.322063)scale(0.1 -0.1)">
       <use xlink:href="#DejaVuSans-35"/>
       <use x="83.789062" xlink:href="#DejaVuSans-51"/>
      </g>
     </g>
    </g>
    <g id="xtick_9">
     <g id="line2d_17">
      <path clip-path="url(#pb6568ada9f)" d="M 493.21512 238.328 
L 493.21512 12.48 
" style="fill:none;stroke:#b0b0b0;stroke-linecap:square;stroke-opacity:0.5;stroke-width:0.8;"/>
     </g>
     <g id="line2d_18">
      <g>
       <use style="stroke:#000000;stroke-width:0.8;" x="493.21512" xlink:href="#m8f5dab675d" y="238.328"/>
      </g>
     </g>
     <g id="text_9">
      <!-- $\longrightarrow$ -->
      <g transform="translate(493.21512 252.926437)scale(0.1 -0.1)">
       <use transform="translate(19.482422 0.265625)" xlink:href="#DejaVuSans-10230"/>
      </g>
      <!-- Make() -->
      <g transform="translate(493.21512 264.12425)scale(0.1 -0.1)">
       <use xlink:href="#DejaVuSans-77"/>
       <use x="86.279297" xlink:href="#DejaVuSans-97"/>
       <use x="147.558594" xlink:href="#DejaVuSans-107"/>
       <use x="205.421875" xlink:href="#DejaVuSans-101"/>
       <use x="266.945312" xlink:href="#DejaVuSans-40"/>
       <use x="305.958984" xlink:href="#DejaVuSans-41"/>
      </g>
     </g>
    </g>
   </g>
   <g id="matplotlib.axis_2">
    <g id="ytick_1">
     <g id="line2d_19">
      <path clip-path="url(#pb6568ada9f)" d="M 56.84 238.328 
L 563.52 238.328 
" style="fill:none;stroke:#b0b0b0;stroke-linecap:square;stroke-opacity:0.5;stroke-width:0.8;"/>
     </g>
     <g id="line2d_20">
      <defs>
       <path d="M 0 0 
L -3.5 0 
" id="m91ec00436c" style="stroke:#000000;stroke-width:0.8;"/>
      </defs>
      <g>
       <use style="stroke:#000000;stroke-width:0.8;" x="56.84" xlink:href="#m91ec00436c" y="238.328"/>
      </g>
     </g>
     <g id="text_10">
      <!-- 0 -->
      <defs>
       <path d="M 31.78125 66.40625 
Q 24.171875 66.40625 20.328125 58.90625 
Q 16.5 51.421875 16.5 36.375 
Q 16.5 21.390625 20.328125 13.890625 
Q 24.171875 6.390625 31.78125 6.390625 
Q 39.453125 6.390625 43.28125 13.890625 
Q 47.125 21.390625 47.125 36.375 
Q 47.125 51.421875 43.28125 58.90625 
Q 39.453125 66.40625 31.78125 66.40625 
z
M 31.78125 74.21875 
Q 44.046875 74.21875 50.515625 64.515625 
Q 56.984375 54.828125 56.984375 36.375 
Q 56.984375 17.96875 50.515625 8.265625 
Q 44.046875 -1.421875 31.78125 -1.421875 
Q 19.53125 -1.421875 13.0625 8.265625 
Q 6.59375 17.96875 6.59375 36.375 
Q 6.59375 54.828125 13.0625 64.515625 
Q 19.53125 74.21875 31.78125 74.21875 
z
" id="DejaVuSans-48"/>
      </defs>
      <g transform="translate(43.4775 242.127219)scale(0.1 -0.1)">
       <use xlink:href="#DejaVuSans-48"/>
      </g>
     </g>
    </g>
    <g id="ytick_2">
     <g id="line2d_21">
      <path clip-path="url(#pb6568ada9f)" d="M 56.84 208.064831 
L 563.52 208.064831 
" style="fill:none;stroke:#b0b0b0;stroke-linecap:square;stroke-opacity:0.5;stroke-width:0.8;"/>
     </g>
     <g id="line2d_22">
      <g>
       <use style="stroke:#000000;stroke-width:0.8;" x="56.84" xlink:href="#m91ec00436c" y="208.064831"/>
      </g>
     </g>
     <g id="text_11">
      <!-- 200 -->
      <g transform="translate(30.7525 211.86405)scale(0.1 -0.1)">
       <use xlink:href="#DejaVuSans-50"/>
       <use x="63.623047" xlink:href="#DejaVuSans-48"/>
       <use x="127.246094" xlink:href="#DejaVuSans-48"/>
      </g>
     </g>
    </g>
    <g id="ytick_3">
     <g id="line2d_23">
      <path clip-path="url(#pb6568ada9f)" d="M 56.84 177.801662 
L 563.52 177.801662 
" style="fill:none;stroke:#b0b0b0;stroke-linecap:square;stroke-opacity:0.5;stroke-width:0.8;"/>
     </g>
     <g id="line2d_24">
      <g>
       <use style="stroke:#000000;stroke-width:0.8;" x="56.84" xlink:href="#m91ec00436c" y="177.801662"/>
      </g>
     </g>
     <g id="text_12">
      <!-- 400 -->
      <defs>
       <path d="M 37.796875 64.3125 
L 12.890625 25.390625 
L 37.796875 25.390625 
z
M 35.203125 72.90625 
L 47.609375 72.90625 
L 47.609375 25.390625 
L 58.015625 25.390625 
L 58.015625 17.1875 
L 47.609375 17.1875 
L 47.609375 0 
L 37.796875 0 
L 37.796875 17.1875 
L 4.890625 17.1875 
L 4.890625 26.703125 
z
" id="DejaVuSans-52"/>
      </defs>
      <g transform="translate(30.7525 181.600881)scale(0.1 -0.1)">
       <use xlink:href="#DejaVuSans-52"/>
       <use x="63.623047" xlink:href="#DejaVuSans-48"/>
       <use x="127.246094" xlink:href="#DejaVuSans-48"/>
      </g>
     </g>
    </g>
    <g id="ytick_4">
     <g id="line2d_25">
      <path clip-path="url(#pb6568ada9f)" d="M 56.84 147.538494 
L 563.52 147.538494 
" style="fill:none;stroke:#b0b0b0;stroke-linecap:square;stroke-opacity:0.5;stroke-width:0.8;"/>
     </g>
     <g id="line2d_26">
      <g>
       <use style="stroke:#000000;stroke-width:0.8;" x="56.84" xlink:href="#m91ec00436c" y="147.538494"/>
      </g>
     </g>
     <g id="text_13">
      <!-- 600 -->
      <defs>
       <path d="M 33.015625 40.375 
Q 26.375 40.375 22.484375 35.828125 
Q 18.609375 31.296875 18.609375 23.390625 
Q 18.609375 15.53125 22.484375 10.953125 
Q 26.375 6.390625 33.015625 6.390625 
Q 39.65625 6.390625 43.53125 10.953125 
Q 47.40625 15.53125 47.40625 23.390625 
Q 47.40625 31.296875 43.53125 35.828125 
Q 39.65625 40.375 33.015625 40.375 
z
M 52.59375 71.296875 
L 52.59375 62.3125 
Q 48.875 64.0625 45.09375 64.984375 
Q 41.3125 65.921875 37.59375 65.921875 
Q 27.828125 65.921875 22.671875 59.328125 
Q 17.53125 52.734375 16.796875 39.40625 
Q 19.671875 43.65625 24.015625 45.921875 
Q 28.375 48.1875 33.59375 48.1875 
Q 44.578125 48.1875 50.953125 41.515625 
Q 57.328125 34.859375 57.328125 23.390625 
Q 57.328125 12.15625 50.6875 5.359375 
Q 44.046875 -1.421875 33.015625 -1.421875 
Q 20.359375 -1.421875 13.671875 8.265625 
Q 6.984375 17.96875 6.984375 36.375 
Q 6.984375 53.65625 15.1875 63.9375 
Q 23.390625 74.21875 37.203125 74.21875 
Q 40.921875 74.21875 44.703125 73.484375 
Q 48.484375 72.75 52.59375 71.296875 
z
" id="DejaVuSans-54"/>
      </defs>
      <g transform="translate(30.7525 151.337712)scale(0.1 -0.1)">
       <use xlink:href="#DejaVuSans-54"/>
       <use x="63.623047" xlink:href="#DejaVuSans-48"/>
       <use x="127.246094" xlink:href="#DejaVuSans-48"/>
      </g>
     </g>
    </g>
    <g id="ytick_5">
     <g id="line2d_27">
      <path clip-path="url(#pb6568ada9f)" d="M 56.84 117.275325 
L 563.52 117.275325 
" style="fill:none;stroke:#b0b0b0;stroke-linecap:square;stroke-opacity:0.5;stroke-width:0.8;"/>
     </g>
     <g id="line2d_28">
      <g>
       <use style="stroke:#000000;stroke-width:0.8;" x="56.84" xlink:href="#m91ec00436c" y="117.275325"/>
      </g>
     </g>
     <g id="text_14">
      <!-- 800 -->
      <defs>
       <path d="M 31.78125 34.625 
Q 24.75 34.625 20.71875 30.859375 
Q 16.703125 27.09375 16.703125 20.515625 
Q 16.703125 13.921875 20.71875 10.15625 
Q 24.75 6.390625 31.78125 6.390625 
Q 38.8125 6.390625 42.859375 10.171875 
Q 46.921875 13.96875 46.921875 20.515625 
Q 46.921875 27.09375 42.890625 30.859375 
Q 38.875 34.625 31.78125 34.625 
z
M 21.921875 38.8125 
Q 15.578125 40.375 12.03125 44.71875 
Q 8.5 49.078125 8.5 55.328125 
Q 8.5 64.0625 14.71875 69.140625 
Q 20.953125 74.21875 31.78125 74.21875 
Q 42.671875 74.21875 48.875 69.140625 
Q 55.078125 64.0625 55.078125 55.328125 
Q 55.078125 49.078125 51.53125 44.71875 
Q 48 40.375 41.703125 38.8125 
Q 48.828125 37.15625 52.796875 32.3125 
Q 56.78125 27.484375 56.78125 20.515625 
Q 56.78125 9.90625 50.3125 4.234375 
Q 43.84375 -1.421875 31.78125 -1.421875 
Q 19.734375 -1.421875 13.25 4.234375 
Q 6.78125 9.90625 6.78125 20.515625 
Q 6.78125 27.484375 10.78125 32.3125 
Q 14.796875 37.15625 21.921875 38.8125 
z
M 18.3125 54.390625 
Q 18.3125 48.734375 21.84375 45.5625 
Q 25.390625 42.390625 31.78125 42.390625 
Q 38.140625 42.390625 41.71875 45.5625 
Q 45.3125 48.734375 45.3125 54.390625 
Q 45.3125 60.0625 41.71875 63.234375 
Q 38.140625 66.40625 31.78125 66.40625 
Q 25.390625 66.40625 21.84375 63.234375 
Q 18.3125 60.0625 18.3125 54.390625 
z
" id="DejaVuSans-56"/>
      </defs>
      <g transform="translate(30.7525 121.074543)scale(0.1 -0.1)">
       <use xlink:href="#DejaVuSans-56"/>
       <use x="63.623047" xlink:href="#DejaVuSans-48"/>
       <use x="127.246094" xlink:href="#DejaVuSans-48"/>
      </g>
     </g>
    </g>
    <g id="ytick_6">
     <g id="line2d_29">
      <path clip-path="url(#pb6568ada9f)" d="M 56.84 87.012156 
L 563.52 87.012156 
" style="fill:none;stroke:#b0b0b0;stroke-linecap:square;stroke-opacity:0.5;stroke-width:0.8;"/>
     </g>
     <g id="line2d_30">
      <g>
       <use style="stroke:#000000;stroke-width:0.8;" x="56.84" xlink:href="#m91ec00436c" y="87.012156"/>
      </g>
     </g>
     <g id="text_15">
      <!-- 1000 -->
      <g transform="translate(24.39 90.811375)scale(0.1 -0.1)">
       <use xlink:href="#DejaVuSans-49"/>
       <use x="63.623047" xlink:href="#DejaVuSans-48"/>
       <use x="127.246094" xlink:href="#DejaVuSans-48"/>
       <use x="190.869141" xlink:href="#DejaVuSans-48"/>
      </g>
     </g>
    </g>
    <g id="ytick_7">
     <g id="line2d_31">
      <path clip-path="url(#pb6568ada9f)" d="M 56.84 56.748987 
L 563.52 56.748987 
" style="fill:none;stroke:#b0b0b0;stroke-linecap:square;stroke-opacity:0.5;stroke-width:0.8;"/>
     </g>
     <g id="line2d_32">
      <g>
       <use style="stroke:#000000;stroke-width:0.8;" x="56.84" xlink:href="#m91ec00436c" y="56.748987"/>
      </g>
     </g>
     <g id="text_16">
      <!-- 1200 -->
      <g transform="translate(24.39 60.548206)scale(0.1 -0.1)">
       <use xlink:href="#DejaVuSans-49"/>
       <use x="63.623047" xlink:href="#DejaVuSans-50"/>
       <use x="127.246094" xlink:href="#DejaVuSans-48"/>
       <use x="190.869141" xlink:href="#DejaVuSans-48"/>
      </g>
     </g>
    </g>
    <g id="ytick_8">
     <g id="line2d_33">
      <path clip-path="url(#pb6568ada9f)" d="M 56.84 26.485818 
L 563.52 26.485818 
" style="fill:none;stroke:#b0b0b0;stroke-linecap:square;stroke-opacity:0.5;stroke-width:0.8;"/>
     </g>
     <g id="line2d_34">
      <g>
       <use style="stroke:#000000;stroke-width:0.8;" x="56.84" xlink:href="#m91ec00436c" y="26.485818"/>
      </g>
     </g>
     <g id="text_17">
      <!-- 1400 -->
      <g transform="translate(24.39 30.285037)scale(0.1 -0.1)">
       <use xlink:href="#DejaVuSans-49"/>
       <use x="63.623047" xlink:href="#DejaVuSans-52"/>
       <use x="127.246094" xlink:href="#DejaVuSans-48"/>
       <use x="190.869141" xlink:href="#DejaVuSans-48"/>
      </g>
     </g>
    </g>
    <g id="text_18">
     <!-- Mb -->
     <g transform="translate(18.310313 132.892281)rotate(-90)scale(0.1 -0.1)">
      <use xlink:href="#DejaVuSans-77"/>
      <use x="86.279297" xlink:href="#DejaVuSans-98"/>
     </g>
    </g>
   </g>
   <g id="line2d_35">
    <path clip-path="url(#pb6568ada9f)" d="M 79.870909 207.92179 
L 81.083062 207.467843 
L 83.507368 207.364995 
L 84.719522 204.892518 
L 85.931675 203.241048 
L 87.143828 203.096234 
L 89.568134 203.015256 
L 90.780287 202.85271 
L 93.204593 202.800104 
L 94.416746 200.871418 
L 95.6289 191.644107 
L 96.841053 191.412995 
L 101.689665 191.230352 
L 105.326124 191.164152 
L 106.538278 190.161684 
L 111.38689 189.78635 
L 112.599043 189.640354 
L 113.811196 189.640354 
L 115.023349 189.359592 
L 119.871962 189.18286 
L 123.508421 189.138529 
L 124.720574 188.660938 
L 125.932727 188.625474 
L 127.14488 188.053902 
L 147.751483 187.761318 
L 148.963636 187.627144 
L 161.085167 187.346973 
L 175.631005 187.04907 
L 182.903923 187.048479 
L 184.116077 186.882977 
L 209.571292 186.801409 
L 210.783445 183.5824 
L 219.268517 183.543389 
L 220.48067 181.337488 
L 224.117129 181.337488 
L 225.329282 179.327825 
L 226.541435 177.762651 
L 266.542488 177.762651 
L 267.754641 177.567005 
L 312.604306 177.487209 
L 313.816459 177.329982 
L 315.028612 177.329982 
L 316.240766 176.991295 
L 317.452919 176.991295 
L 318.665072 176.844117 
L 319.877225 176.049709 
L 323.513684 175.979962 
L 324.725837 150.068896 
L 325.93799 150.068896 
L 327.150144 148.958262 
L 328.362297 134.920171 
L 341.695981 134.920171 
L 342.908134 121.83667 
L 345.33244 121.83667 
L 346.544593 116.962645 
L 353.817512 116.962645 
L 355.029665 102.603007 
L 356.241818 100.741704 
L 357.453971 94.881171 
L 358.666124 94.618141 
L 431.395311 94.692026 
L 432.607464 95.40723 
L 540.489091 95.471657 
L 540.489091 95.471657 
" style="fill:none;stroke:#1f77b4;stroke-linecap:square;stroke-width:1.5;"/>
   </g>
   <g id="line2d_36">
    <path clip-path="url(#pb6568ada9f)" d="M 79.870909 207.629798 
L 81.083062 207.174669 
L 82.295215 207.04404 
L 83.507368 207.041676 
L 84.719522 203.740508 
L 85.931675 201.800592 
L 87.143828 201.631543 
L 89.568134 201.535198 
L 90.780287 201.34428 
L 93.204593 201.288719 
L 94.416746 198.836929 
L 95.6289 189.588339 
L 96.841053 189.348953 
L 98.053206 189.327674 
L 99.265359 189.188771 
L 105.326124 189.054596 
L 106.538278 187.762501 
L 111.38689 187.307962 
L 112.599043 187.134185 
L 113.811196 187.134185 
L 115.023349 186.772446 
L 117.447656 186.663096 
L 119.871962 186.534242 
L 123.508421 186.479271 
L 124.720574 185.876963 
L 125.932727 185.85864 
L 127.14488 185.248057 
L 146.53933 184.940105 
L 147.751483 184.911734 
L 150.175789 184.719043 
L 158.660861 184.540537 
L 161.085167 184.392177 
L 171.994545 184.164021 
L 174.418852 184.073586 
L 199.874067 183.832426 
L 209.571292 183.812921 
L 210.783445 180.593913 
L 219.268517 180.554901 
L 220.48067 178.348409 
L 224.117129 178.348409 
L 225.329282 176.338154 
L 226.541435 174.772981 
L 266.542488 174.772981 
L 267.754641 174.577334 
L 312.604306 174.482171 
L 313.816459 174.324944 
L 315.028612 174.324944 
L 316.240766 174.008127 
L 317.452919 174.008127 
L 318.665072 173.862722 
L 319.877225 173.047626 
L 323.513684 172.976697 
L 324.725837 147.06504 
L 325.93799 147.06504 
L 327.150144 145.968001 
L 328.362297 131.930501 
L 341.695981 131.930501 
L 342.908134 118.847 
L 345.33244 118.847 
L 346.544593 113.942239 
L 353.817512 113.942239 
L 355.029665 99.613337 
L 356.241818 97.752034 
L 357.453971 91.891501 
L 358.666124 91.629062 
L 431.395311 91.702947 
L 432.607464 92.405738 
L 540.489091 92.470166 
L 540.489091 92.470166 
" style="fill:none;stroke:#ff7f0e;stroke-linecap:square;stroke-width:1.5;"/>
   </g>
   <g id="line2d_37">
    <path clip-path="url(#pb6568ada9f)" d="M 79.870909 182.906208 
L 81.083062 182.115346 
L 83.507368 181.394823 
L 84.719522 177.692904 
L 85.931675 175.252936 
L 87.143828 174.775937 
L 89.568134 174.071963 
L 90.780287 173.567183 
L 93.204593 172.886853 
L 94.416746 170.184446 
L 95.6289 160.645046 
L 96.841053 160.10953 
L 100.477512 159.033178 
L 105.326124 157.708573 
L 106.538278 156.151675 
L 111.38689 154.477153 
L 112.599043 153.988922 
L 113.811196 153.988922 
L 115.023349 153.352332 
L 117.447656 152.626489 
L 123.508421 150.961423 
L 124.720574 149.999149 
L 125.932727 149.678785 
L 127.14488 148.790396 
L 140.478565 145.227972 
L 145.327177 143.911051 
L 146.53933 143.911051 
L 147.751483 143.580638 
L 148.963636 143.124918 
L 159.873014 140.099783 
L 170.782392 137.125481 
L 175.631005 135.794965 
L 182.903923 135.794374 
L 184.116077 135.601092 
L 209.571292 135.521888 
L 210.783445 132.283374 
L 219.268517 132.224266 
L 220.48067 129.556142 
L 224.117129 129.556142 
L 225.329282 127.061795 
L 226.541435 113.883722 
L 266.542488 113.883722 
L 267.754641 112.70866 
L 312.604306 112.636548 
L 313.816459 112.479322 
L 315.028612 112.479322 
L 316.240766 112.101623 
L 317.452919 112.101623 
L 318.665072 111.956809 
L 319.877225 111.148215 
L 323.513684 111.077286 
L 324.725837 85.136667 
L 325.93799 85.136667 
L 327.150144 83.510613 
L 328.362297 67.737709 
L 341.695981 67.737709 
L 342.908134 54.129332 
L 345.33244 54.129332 
L 346.544593 47.636936 
L 353.817512 47.636936 
L 355.029665 35.178204 
L 356.241818 33.300942 
L 357.453971 27.410263 
L 358.666124 25.284158 
L 431.395311 25.358042 
L 432.607464 24.3804 
L 447.153301 24.3804 
L 448.365455 23.599587 
L 540.489091 23.664014 
L 540.489091 23.664014 
" style="fill:none;stroke:#2ca02c;stroke-linecap:square;stroke-width:1.5;"/>
   </g>
   <g id="line2d_38">
    <path clip-path="url(#pb6568ada9f)" d="M 79.870909 182.682189 
L 81.083062 181.890145 
L 82.295215 181.452748 
L 83.507368 181.147752 
L 84.719522 176.732403 
L 85.931675 174.183086 
L 87.143828 173.696629 
L 89.568134 172.986745 
L 90.780287 172.471325 
L 93.204593 171.789222 
L 94.416746 168.920723 
L 95.6289 159.365364 
L 96.841053 158.822754 
L 98.053206 158.497071 
L 99.265359 158.050807 
L 105.326124 156.396381 
L 106.538278 154.704717 
L 112.599043 152.474582 
L 113.811196 152.474582 
L 115.023349 151.791296 
L 117.447656 151.054223 
L 121.084115 149.997376 
L 123.508421 149.332414 
L 124.720574 148.328764 
L 125.932727 148.006627 
L 127.14488 147.104643 
L 140.478565 143.522713 
L 145.327177 142.201063 
L 146.53933 142.201063 
L 147.751483 141.867105 
L 148.963636 141.387741 
L 158.660861 138.734985 
L 161.085167 137.973677 
L 171.994545 134.999966 
L 174.418852 134.301904 
L 175.631005 133.982131 
L 182.903923 133.98154 
L 184.116077 133.788257 
L 209.571292 133.689547 
L 210.783445 130.470539 
L 219.268517 130.411431 
L 220.48067 127.743308 
L 224.117129 127.743308 
L 225.329282 125.24896 
L 226.541435 112.071478 
L 266.542488 112.071478 
L 267.754641 110.896416 
L 312.604306 110.814256 
L 313.816459 110.65703 
L 315.028612 110.65703 
L 316.240766 110.288788 
L 317.452919 110.288788 
L 318.665072 110.143975 
L 319.877225 109.331834 
L 323.513684 109.260905 
L 324.725837 83.349249 
L 325.93799 83.349249 
L 327.150144 81.695414 
L 328.362297 65.934332 
L 341.695981 65.934332 
L 342.908134 52.313541 
L 345.33244 52.313541 
L 346.544593 45.821146 
L 353.817512 45.821146 
L 355.029665 33.36537 
L 356.241818 31.487516 
L 357.453971 25.597429 
L 358.666124 23.470732 
L 431.395311 23.544617 
L 432.607464 22.565792 
L 447.153301 22.565792 
L 448.365455 21.786752 
L 540.489091 21.851179 
L 540.489091 21.851179 
" style="fill:none;stroke:#d62728;stroke-linecap:square;stroke-width:1.5;"/>
   </g>
   <g id="line2d_39">
    <path clip-path="url(#pb6568ada9f)" d="M 81.083062 238.328 
L 81.083062 12.48 
" style="fill:none;stroke:#1f77b4;stroke-dasharray:1.5,2.475;stroke-dashoffset:0;stroke-width:1.5;"/>
   </g>
   <g id="line2d_40">
    <path clip-path="url(#pb6568ada9f)" d="M 176.843158 238.328 
L 176.843158 12.48 
" style="fill:none;stroke:#ff7f0e;stroke-dasharray:1.5,2.475;stroke-dashoffset:0;stroke-width:1.5;"/>
   </g>
   <g id="line2d_41">
    <path clip-path="url(#pb6568ada9f)" d="M 225.329282 238.328 
L 225.329282 12.48 
" style="fill:none;stroke:#2ca02c;stroke-dasharray:1.5,2.475;stroke-dashoffset:0;stroke-width:1.5;"/>
   </g>
   <g id="line2d_42">
    <path clip-path="url(#pb6568ada9f)" d="M 272.603254 238.328 
L 272.603254 12.48 
" style="fill:none;stroke:#d62728;stroke-dasharray:1.5,2.475;stroke-dashoffset:0;stroke-width:1.5;"/>
   </g>
   <g id="line2d_43">
    <path clip-path="url(#pb6568ada9f)" d="M 363.514737 238.328 
L 363.514737 12.48 
" style="fill:none;stroke:#d62728;stroke-dasharray:1.5,2.475;stroke-dashoffset:0;stroke-width:1.5;"/>
   </g>
   <g id="line2d_44">
    <path clip-path="url(#pb6568ada9f)" d="M 453.214067 238.328 
L 453.214067 12.48 
" style="fill:none;stroke:#d62728;stroke-dasharray:1.5,2.475;stroke-dashoffset:0;stroke-width:1.5;"/>
   </g>
   <g id="line2d_45">
    <path clip-path="url(#pb6568ada9f)" d="M 313.816459 238.328 
L 313.816459 12.48 
" style="fill:none;stroke:#9467bd;stroke-dasharray:1.5,2.475;stroke-dashoffset:0;stroke-width:1.5;"/>
   </g>
   <g id="line2d_46">
    <path clip-path="url(#pb6568ada9f)" d="M 403.515789 238.328 
L 403.515789 12.48 
" style="fill:none;stroke:#9467bd;stroke-dasharray:1.5,2.475;stroke-dashoffset:0;stroke-width:1.5;"/>
   </g>
   <g id="line2d_47">
    <path clip-path="url(#pb6568ada9f)" d="M 493.21512 238.328 
L 493.21512 12.48 
" style="fill:none;stroke:#9467bd;stroke-dasharray:1.5,2.475;stroke-dashoffset:0;stroke-width:1.5;"/>
   </g>
   <g id="patch_3">
    <path d="M 56.84 238.328 
L 56.84 12.48 
" style="fill:none;stroke:#000000;stroke-linecap:square;stroke-linejoin:miter;stroke-width:0.8;"/>
   </g>
   <g id="patch_4">
    <path d="M 563.52 238.328 
L 563.52 12.48 
" style="fill:none;stroke:#000000;stroke-linecap:square;stroke-linejoin:miter;stroke-width:0.8;"/>
   </g>
   <g id="patch_5">
    <path d="M 56.84 238.328 
L 563.52 238.328 
" style="fill:none;stroke:#000000;stroke-linecap:square;stroke-linejoin:miter;stroke-width:0.8;"/>
   </g>
   <g id="patch_6">
    <path d="M 56.84 12.48 
L 563.52 12.48 
" style="fill:none;stroke:#000000;stroke-linecap:square;stroke-linejoin:miter;stroke-width:0.8;"/>
   </g>
   <g id="legend_1">
    <g id="patch_7">
     <path d="M 63.84 79.1925 
L 166.318125 79.1925 
Q 168.318125 79.1925 168.318125 77.1925 
L 168.318125 19.48 
Q 168.318125 17.48 166.318125 17.48 
L 63.84 17.48 
Q 61.84 17.48 61.84 19.48 
L 61.84 77.1925 
Q 61.84 79.1925 63.84 79.1925 
z
" style="fill:#ffffff;opacity:0.8;stroke:#cccccc;stroke-linejoin:miter;"/>
    </g>
    <g id="line2d_48">
     <path d="M 65.84 25.578438 
L 85.84 25.578438 
" style="fill:none;stroke:#1f77b4;stroke-linecap:square;stroke-width:1.5;"/>
    </g>
    <g id="line2d_49"/>
    <g id="text_19">
     <!-- 32-MinSizeRel -->
     <defs>
      <path d="M 4.890625 31.390625 
L 31.203125 31.390625 
L 31.203125 23.390625 
L 4.890625 23.390625 
z
" id="DejaVuSans-45"/>
      <path d="M 53.515625 70.515625 
L 53.515625 60.890625 
Q 47.90625 63.578125 42.921875 64.890625 
Q 37.9375 66.21875 33.296875 66.21875 
Q 25.25 66.21875 20.875 63.09375 
Q 16.5 59.96875 16.5 54.203125 
Q 16.5 49.359375 19.40625 46.890625 
Q 22.3125 44.4375 30.421875 42.921875 
L 36.375 41.703125 
Q 47.40625 39.59375 52.65625 34.296875 
Q 57.90625 29 57.90625 20.125 
Q 57.90625 9.515625 50.796875 4.046875 
Q 43.703125 -1.421875 29.984375 -1.421875 
Q 24.8125 -1.421875 18.96875 -0.25 
Q 13.140625 0.921875 6.890625 3.21875 
L 6.890625 13.375 
Q 12.890625 10.015625 18.65625 8.296875 
Q 24.421875 6.59375 29.984375 6.59375 
Q 38.421875 6.59375 43.015625 9.90625 
Q 47.609375 13.234375 47.609375 19.390625 
Q 47.609375 24.75 44.3125 27.78125 
Q 41.015625 30.8125 33.5 32.328125 
L 27.484375 33.5 
Q 16.453125 35.6875 11.515625 40.375 
Q 6.59375 45.0625 6.59375 53.421875 
Q 6.59375 63.09375 13.40625 68.65625 
Q 20.21875 74.21875 32.171875 74.21875 
Q 37.3125 74.21875 42.625 73.28125 
Q 47.953125 72.359375 53.515625 70.515625 
z
" id="DejaVuSans-83"/>
      <path d="M 5.515625 54.6875 
L 48.1875 54.6875 
L 48.1875 46.484375 
L 14.40625 7.171875 
L 48.1875 7.171875 
L 48.1875 0 
L 4.296875 0 
L 4.296875 8.203125 
L 38.09375 47.515625 
L 5.515625 47.515625 
z
" id="DejaVuSans-122"/>
      <path d="M 44.390625 34.1875 
Q 47.5625 33.109375 50.5625 29.59375 
Q 53.5625 26.078125 56.59375 19.921875 
L 66.609375 0 
L 56 0 
L 46.6875 18.703125 
Q 43.0625 26.03125 39.671875 28.421875 
Q 36.28125 30.8125 30.421875 30.8125 
L 19.671875 30.8125 
L 19.671875 0 
L 9.8125 0 
L 9.8125 72.90625 
L 32.078125 72.90625 
Q 44.578125 72.90625 50.734375 67.671875 
Q 56.890625 62.453125 56.890625 51.90625 
Q 56.890625 45.015625 53.6875 40.46875 
Q 50.484375 35.9375 44.390625 34.1875 
z
M 19.671875 64.796875 
L 19.671875 38.921875 
L 32.078125 38.921875 
Q 39.203125 38.921875 42.84375 42.21875 
Q 46.484375 45.515625 46.484375 51.90625 
Q 46.484375 58.296875 42.84375 61.546875 
Q 39.203125 64.796875 32.078125 64.796875 
z
" id="DejaVuSans-82"/>
     </defs>
     <g transform="translate(93.84 29.078438)scale(0.1 -0.1)">
      <use xlink:href="#DejaVuSans-51"/>
      <use x="63.623047" xlink:href="#DejaVuSans-50"/>
      <use x="127.246094" xlink:href="#DejaVuSans-45"/>
      <use x="163.330078" xlink:href="#DejaVuSans-77"/>
      <use x="249.609375" xlink:href="#DejaVuSans-105"/>
      <use x="277.392578" xlink:href="#DejaVuSans-110"/>
      <use x="340.771484" xlink:href="#DejaVuSans-83"/>
      <use x="404.248047" xlink:href="#DejaVuSans-105"/>
      <use x="432.03125" xlink:href="#DejaVuSans-122"/>
      <use x="484.521484" xlink:href="#DejaVuSans-101"/>
      <use x="546.044922" xlink:href="#DejaVuSans-82"/>
      <use x="615.464844" xlink:href="#DejaVuSans-101"/>
      <use x="676.988281" xlink:href="#DejaVuSans-108"/>
     </g>
    </g>
    <g id="line2d_50">
     <path d="M 65.84 40.256563 
L 85.84 40.256563 
" style="fill:none;stroke:#ff7f0e;stroke-linecap:square;stroke-width:1.5;"/>
    </g>
    <g id="line2d_51"/>
    <g id="text_20">
     <!-- 32-Release -->
     <g transform="translate(93.84 43.756563)scale(0.1 -0.1)">
      <use xlink:href="#DejaVuSans-51"/>
      <use x="63.623047" xlink:href="#DejaVuSans-50"/>
      <use x="127.246094" xlink:href="#DejaVuSans-45"/>
      <use x="163.330078" xlink:href="#DejaVuSans-82"/>
      <use x="232.75" xlink:href="#DejaVuSans-101"/>
      <use x="294.273438" xlink:href="#DejaVuSans-108"/>
      <use x="322.056641" xlink:href="#DejaVuSans-101"/>
      <use x="383.580078" xlink:href="#DejaVuSans-97"/>
      <use x="444.859375" xlink:href="#DejaVuSans-115"/>
      <use x="496.958984" xlink:href="#DejaVuSans-101"/>
     </g>
    </g>
    <g id="line2d_52">
     <path d="M 65.84 54.934688 
L 85.84 54.934688 
" style="fill:none;stroke:#2ca02c;stroke-linecap:square;stroke-width:1.5;"/>
    </g>
    <g id="line2d_53"/>
    <g id="text_21">
     <!-- 64-MinSizeRel -->
     <g transform="translate(93.84 58.434688)scale(0.1 -0.1)">
      <use xlink:href="#DejaVuSans-54"/>
      <use x="63.623047" xlink:href="#DejaVuSans-52"/>
      <use x="127.246094" xlink:href="#DejaVuSans-45"/>
      <use x="163.330078" xlink:href="#DejaVuSans-77"/>
      <use x="249.609375" xlink:href="#DejaVuSans-105"/>
      <use x="277.392578" xlink:href="#DejaVuSans-110"/>
      <use x="340.771484" xlink:href="#DejaVuSans-83"/>
      <use x="404.248047" xlink:href="#DejaVuSans-105"/>
      <use x="432.03125" xlink:href="#DejaVuSans-122"/>
      <use x="484.521484" xlink:href="#DejaVuSans-101"/>
      <use x="546.044922" xlink:href="#DejaVuSans-82"/>
      <use x="615.464844" xlink:href="#DejaVuSans-101"/>
      <use x="676.988281" xlink:href="#DejaVuSans-108"/>
     </g>
    </g>
    <g id="line2d_54">
     <path d="M 65.84 69.612813 
L 85.84 69.612813 
" style="fill:none;stroke:#d62728;stroke-linecap:square;stroke-width:1.5;"/>
    </g>
    <g id="line2d_55"/>
    <g id="text_22">
     <!-- 64-Release -->
     <g transform="translate(93.84 73.112813)scale(0.1 -0.1)">
      <use xlink:href="#DejaVuSans-54"/>
      <use x="63.623047" xlink:href="#DejaVuSans-52"/>
      <use x="127.246094" xlink:href="#DejaVuSans-45"/>
      <use x="163.330078" xlink:href="#DejaVuSans-82"/>
      <use x="232.75" xlink:href="#DejaVuSans-101"/>
      <use x="294.273438" xlink:href="#DejaVuSans-108"/>
      <use x="322.056641" xlink:href="#DejaVuSans-101"/>
      <use x="383.580078" xlink:href="#DejaVuSans-97"/>
      <use x="444.859375" xlink:href="#DejaVuSans-115"/>
      <use x="496.958984" xlink:href="#DejaVuSans-101"/>
     </g>
    </g>
   </g>
  </g>
 </g>
 <defs>
  <clipPath id="pb6568ada9f">
   <rect height="225.848" width="506.68" x="56.84" y="12.48"/>
  </clipPath>
 </defs>
</svg>
